<?xml version="1.0" encoding="utf-8"?>
<!-- Generator: Adobe Illustrator 24.0.2, SVG Export Plug-In . SVG Version: 6.00 Build 0)  -->
<svg version="1.1" id="Ñëîé_1" xmlns="http://www.w3.org/2000/svg" xmlns:xlink="http://www.w3.org/1999/xlink" x="0px" y="0px"
	 viewBox="0 0 600 400" style="enable-background:new 0 0 600 400;" xml:space="preserve">
<style type="text/css">
	.st0{opacity:0.8;fill:url(#SVGID_1_);}
	.st1{opacity:0.1;fill:#42E8E0;}
</style>
<radialGradient id="SVGID_1_" cx="-13.0002" cy="93.5939" r="439.3419" gradientTransform="matrix(1 0 0 1 -1.849339e-05 0)" gradientUnits="userSpaceOnUse">
	<stop  offset="0" style="stop-color:#FF2C9C"/>
	<stop  offset="3.006321e-02" style="stop-color:#F62F9F"/>
	<stop  offset="0.2023" style="stop-color:#C63EB0"/>
	<stop  offset="0.3737" style="stop-color:#9E4BBE"/>
	<stop  offset="0.5413" style="stop-color:#7F54C9"/>
	<stop  offset="0.7039" style="stop-color:#695BD1"/>
	<stop  offset="0.8594" style="stop-color:#5C60D5"/>
	<stop  offset="1" style="stop-color:#5761D7"/>
</radialGradient>
<path class="st0" d="M16.6,42.3c1.2,0.7,3.3,0.7,4.5,0c0.1,0,0.1-0.1,0.1-0.1l69.4,40l0,49.8L0,79.8l0,0.8l107.6,62.1l0,55.1
	l58,33.5l-10.3,5.9l-56.5-32.6l0.2-0.3l-53.7-31v-6.8l-10.9-6.3l0-19.4L0,121l0,0.8l33.7,19.4l0,18.6l-13.9-8
	c0.9-0.7,0.8-1.7-0.3-2.4c-1.2-0.7-3.3-0.7-4.5,0c-1.2,0.7-1.2,1.9,0,2.6c1.1,0.6,2.9,0.7,4.1,0.2l25.5,14.7v6.8l53.3,30.8l-24.8,0
	L0,162.3l0,0.8l71.7,41.4l-71.7,0l0,0.7l98.4,0l56.2,32.5l-10.6,6.1l-40.8-23.5l-0.1,0L0,220.2l0,0.7l73.1,0l-22.2,12.8l-50.9,0
	l0,0.7l51.1,0l23.5-13.5l28.4,0l40.3,23.3l-9.4,5.4L98.2,229l-0.1,0H83.8l-29.2,16.8l-54.6,0l0,0.7l54.8,0L84,229.7h14l25.9,15h-13
	l-12.6-7.3h-9.8l-21.8,12.6c-1.2-0.5-2.9-0.4-4,0.2c-1.2,0.7-1.2,1.9,0,2.6c1.2,0.7,3.3,0.7,4.5,0c1.1-0.7,1.2-1.7,0.3-2.4
	l21.3-12.3h9.4l12.6,7.3h14.4l8.1,4.7l-13.2,7.6h-19.4l-24.1,13.9c-1.2-0.5-3-0.5-4.1,0.2c-1.2,0.7-1.2,1.9,0,2.6
	c1.2,0.7,3.3,0.7,4.5,0c1.1-0.6,1.2-1.7,0.3-2.4l23.5-13.6h18l-6.2,3.6l9.6,5.6l-26.1,15H68.8l-28.9-16.7c0.9-0.7,0.8-1.7-0.3-2.4
	c-1.2-0.7-3.3-0.7-4.5,0c-1.2,0.7-1.2,1.9,0,2.6c1.1,0.6,2.9,0.7,4.1,0.2l14.9,8.6l-54,0l0,0.8l0.2-0.1l55.1,0l13.2,7.6l0.1,0h26.4
	l-10.8,6.2l-62,0l-16,9.2l-6.1,0l0,0.7l4.9,0L0,302.3l0,0.8l22.3-12.9l62,0l38.6-22.3l18,10.4L96,304.2H47.7L0,331.7l0,0.8
	l47.8-27.6h46.9l-59.3,34.3l0,27.4L0,387.1l0,0.8L36.2,367l0-27.4l105.5-60.9l15.5,8.9l-63.4,36.6l0,55.1L58,400h1.4l35.1-20.2
	l0-55.1l63.4-36.6l9.6,5.5l-47,27.1l0,64.6l-22.6,13l0,1.7h0.7l0-1.3l22.6-13l0-64.6l47-27.1l12.9,7.4L145,322.2l0,77.8h0.7l0-33.1
	l18,10.4l0,22.7h0.7l0-23.1L145.8,366l0-19.1l23.7,13.7c-0.8,0.7-0.7,1.7,0.4,2.3c1.2,0.7,3.3,0.7,4.5,0c1.2-0.7,1.2-1.9,0-2.6
	c-1.1-0.7-2.9-0.7-4.2-0.1l-24.4-14.1l0-23.6l35.9-20.8l11.5,6.6l-17.5,10.1l0,14.9l4.4,2.5l0,7.6l31.5,18.2v12.8l25.6,14.8
	c-0.9,0.7-0.8,1.7,0.3,2.4c1.2,0.7,3.3,0.7,4.5,0c1.2-0.7,1.2-1.9,0-2.6c-1.1-0.6-2.9-0.7-4.1-0.2l-25.6-14.8v-12.8l-31.5-18.2
	l0-6.8l52.9,30.6c-0.8,0.7-0.7,1.7,0.4,2.3c1.2,0.7,3.3,0.7,4.5,0c1.2-0.7,1.2-1.9,0-2.6c-1.1-0.7-2.9-0.7-4.2-0.1L192,342h21.3
	l24.4,14.1c-0.9,0.7-0.8,1.7,0.3,2.4c1.2,0.7,3.3,0.7,4.5,0c1.2-0.7,1.2-1.9,0-2.6c-1.1-0.6-2.9-0.7-4.1-0.2l-24.8-14.3l-0.1,0
	h-22.6v0l-14.4-8.3l0-14l17.5-10.1l3.5,2l4.5-2.6l73.3,42.3l0.1,0h20c0.1,0.3,0.4,0.7,0.9,0.9c1.2,0.7,3.3,0.7,4.5,0
	c1.2-0.7,1.2-1.9,0-2.6c-1.2-0.7-3.3-0.7-4.5,0c-0.5,0.3-0.8,0.6-0.9,0.9h-19.8l-72.9-42.1l11.2-6.4l60.9,35.2
	c-0.9,0.7-0.8,1.7,0.3,2.4c1.2,0.7,3.3,0.7,4.5,0c1.2-0.7,1.2-1.9,0-2.6c-1.1-0.6-2.9-0.7-4.1-0.2L214.4,301l11.6-6.7l86.1,49.7
	l0,41.6L287.3,400h1.4l14.8-8.5l14.8,8.5h1.4l-15.5-8.9l8.6-5l0-32.7l14.6,8.4v20.4l29.6,17.1c-0.3,0.2-0.4,0.4-0.5,0.7h6.2
	c-0.1-0.3-0.4-0.7-0.9-0.9c-1.1-0.6-2.9-0.7-4.1-0.2l-29.6-17.1v-20.4l-15.3-8.8l0-8.9l-86.1-49.7l12.7-7.3l167,96.4l0,17h0.7
	l0-17.4l-167-96.4l10.3-5.9l86,49.7l0.1,0h62.6l27.6,15.9h-0.2l0,16.9l31.3,18.1c-0.9,0.7-0.8,1.7,0.3,2.4c1.2,0.7,3.3,0.7,4.5,0
	c1.2-0.7,1.2-1.9,0-2.6c-1.1-0.6-2.9-0.7-4.1-0.2l-31.3-18.1l0-16.2l47.5,27.4l0.1,0l105.1,0l20.1-11.6v-0.8L579.7,373L475,373
	l-75.6-43.7l-0.1,0h-62.6l-85.6-49.4l9-5.2l81.4,47l0.1,0l71.9,0l35,20.2c-0.9,0.7-0.8,1.7,0.3,2.4c1.2,0.7,3.3,0.7,4.5,0
	c1.2-0.7,1.2-1.9,0-2.6c-1.1-0.6-2.9-0.7-4.1-0.2L413.7,321l-0.1,0l-71.9,0l-12-7l96,0l75.9-43.8c1.2,0.5,3,0.5,4.1-0.2
	c1.2-0.7,1.2-1.9,0-2.6c-1.2-0.7-3.3-0.7-4.5,0c-1.1,0.6-1.2,1.7-0.3,2.4l-75.4,43.5l-97.1,0l-30.4-17.5l11.9-6.9h21.2l19.8-11.4
	c1.2,0.5,3,0.5,4.1-0.2c1.2-0.7,1.2-1.9,0-2.6c-1.2-0.7-3.3-0.7-4.5,0c-1.1,0.6-1.2,1.7-0.3,2.4l-19.3,11.1h-19.7l46.1-26.6l42.7,0
	l23.8,13.7c-0.9,0.7-0.8,1.7,0.3,2.4c1.2,0.7,3.3,0.7,4.5,0c1.2-0.7,1.2-1.9,0-2.6c-1.1-0.6-2.9-0.7-4.1-0.2l-24.2-14l-0.1,0l-43,0
	l-59.8,34.5L272,280.7h14l11.3-6.5c1.2,0.5,3,0.5,4.1-0.2c1.2-0.7,1.2-1.9,0-2.6c-1.2-0.7-3.3-0.7-4.5,0c-1.1,0.6-1.2,1.6-0.4,2.3
	l-10.8,6.2h-15.1l-10-5.8l21.3-12.3l-6.7-3.9l36.7-21.2h12.3l14.6,8.4c-0.9,0.7-0.8,1.7,0.3,2.4c1.2,0.7,3.3,0.7,4.5,0
	c1.2-0.7,1.2-1.9,0-2.6c-1.1-0.6-2.9-0.7-4.1-0.2l-15.1-8.7l-0.1,0H312l-26.7,15.4v-14.1l25-14.4c1.2,0.5,3,0.5,4.1-0.2
	c1.2-0.7,1.2-1.9,0-2.6c-1.2-0.7-3.3-0.7-4.5,0c-1.1,0.6-1.2,1.7-0.3,2.4l-25,14.4V252l-9.9,5.7l-34.6-20l16.1-9.3l20.8,0l32.9-19
	h25l34.8,20.1c-0.9,0.7-0.8,1.7,0.3,2.4c1.2,0.7,3.3,0.7,4.5,0c1.2-0.7,1.2-1.9,0-2.6c-1.1-0.6-2.9-0.7-4.1-0.2l-35.2-20.3l-0.1,0
	h-25.4l-32.9,19l-19.4,0l96.5-55.7l68.2,0l43-24.8l0.2-0.1l0-38.1c0.9,0,1.8-0.1,2.5-0.5c1.2-0.7,1.2-1.9,0-2.6
	c-1.2-0.7-3.3-0.7-4.5,0c-1.2,0.7-1.2,1.9,0,2.6c0.4,0.2,0.8,0.3,1.2,0.4l0,37.8l-42.6,24.6l-68.2,0l-114.4,66l-13-7.5l115.5-66.7
	l0.2-0.1l0-39.8l39.5-22.8c1.2,0.5,3,0.5,4.1-0.2c1.2-0.7,1.2-1.9,0-2.6c-1.2-0.7-3.3-0.7-4.5,0c-1.1,0.6-1.2,1.6-0.3,2.4
	l-39.3,22.7l-0.2,0.1l0,39.8l-115.6,66.8l-13.6-7.9l67.7-39.1l0.2-0.1l0-34.2L163.6,80.9c0.9-0.7,0.8-1.7-0.3-2.4
	c-1.2-0.7-3.3-0.7-4.5,0c-1.2,0.7-1.2,1.9,0,2.6c1.1,0.6,2.9,0.7,4.1,0.2l85.5,49.4l-25.7,0l-46.1-26.6c0.9-0.7,0.8-1.7-0.3-2.4
	c-1.2-0.7-3.3-0.7-4.5,0c-1.2,0.7-1.2,1.9,0,2.6c1.1,0.6,2.9,0.7,4.1,0.2l46.6,26.9l0.1,0l27.1,0l29.6,17.1l0,33.4l-54.5,31.5l0-17
	l33.5-19.3l0.2-0.1l0-17.2c0.7,0,1.4-0.2,1.9-0.5c1.2-0.7,1.2-1.9,0-2.6c-1.2-0.7-3.3-0.7-4.5,0c-1.2,0.7-1.2,1.9,0,2.6
	c0.5,0.3,1.2,0.5,1.9,0.5l0,16.8l-33.5,19.3L224,196l0,17.8l-12.7,7.3l-14-8.1l-8.5,4.9l0-37l29.5-17.1c1.2,0.5,3,0.5,4.1-0.2
	c1.2-0.7,1.2-1.9,0-2.6c-1.2-0.7-3.3-0.7-4.5,0c-1.1,0.6-1.2,1.7-0.3,2.4l-29.4,17l-0.2,0.1l0,15.1L166,182.8l0-14.3l48.2-27.8
	c1.2,0.5,3,0.5,4.1-0.2c1.2-0.7,1.2-1.9,0-2.6c-1.2-0.7-3.3-0.7-4.5,0c-1.1,0.6-1.2,1.6-0.3,2.4l-48,27.7l-0.2,0.1l0,15.2l22.8,13.2
	l0,21.9l-12.1,7l-10.2-5.9l0-13.4l-15.5-8.9c0.9-0.7,0.8-1.7-0.3-2.4c-1.2-0.7-3.3-0.7-4.5,0c-1.2,0.7-1.2,1.9,0,2.6
	c1.1,0.6,2.9,0.7,4.1,0.2l15.5,8.9l0,12.6l-33.8-19.5l0-29.4l50.9-29.4l0.2-0.1v-11.1l-28.8-16.6c0.9-0.7,0.8-1.7-0.3-2.4
	c-1.2-0.7-3.3-0.7-4.5,0c-1.2,0.7-1.2,1.9,0,2.6c1.1,0.6,2.9,0.7,4.1,0.2l28.8,16.6v10.2l-50.9,29.4l-0.2,0.1l0,30.2l44.7,25.8
	l-9,5.2l-58-33.5l0-55.1l-16.9-9.8l0-50.7L21.8,41.7c0.5-0.7,0.2-1.5-0.7-2c-1.2-0.7-3.3-0.7-4.5,0C15.4,40.4,15.4,41.6,16.6,42.3z
	 M197.3,213.8l83.3,48.1L197.3,310L114,261.9L197.3,213.8z"/>
<path class="st1" d="M0,126.6l14.3,8.2l0,27.6l131.6,76l-8.1,4.7l-67.8-39.2l-0.1,0l-49.3,0L0,192l0,0.6l20.3,11.7l0.1,0l49.3,0
	l67.5,39l-7.1,4.1l-64.2-37.1l-0.1,0l-56.6,0L0,205.1l0,0.6l9,5.2l0.1,0l56.6,0l9.5,5.5l-75.2,0l0,0.6l76.1,0l23.9,13.8l-9.4,5.4
	l-16.7,0l-15.6,9c-1-0.4-2.3-0.4-3.2,0.1c-1,0.6-1,1.5,0,2c1,0.6,2.6,0.6,3.5,0c0.9-0.5,1-1.3,0.3-1.9l15.2-8.8l15.6,0l-36.4,21
	H19.7L1,247c0.7-0.6,0.6-1.4-0.3-1.9c-0.2-0.1-0.5-0.2-0.7-0.3l0,2.6c0.1,0,0.3-0.1,0.4-0.1l19.1,11l0.1,0h33.9l47.2-27.2l20,11.6
	h-11.1l-8.9,5.1c-1-0.4-2.4-0.4-3.3,0.1c-1,0.6-1,1.5,0,2c1,0.6,2.6,0.6,3.5,0c0.9-0.5,1-1.3,0.3-1.8l8.5-4.9h11.9l7.9,4.5
	l-16.4,9.4l-0.4,0.2l5.3,3L89,277.2h-9.7l-11.5-6.7c0.7-0.6,0.6-1.4-0.3-1.9c-1-0.6-2.6-0.6-3.5,0c-1,0.6-1,1.5,0,2
	c0.9,0.5,2.3,0.6,3.2,0.1l11.9,6.9l0.1,0h10l21-12.1l0,11.1l-19.7,11.4c-1-0.4-2.3-0.4-3.2,0.1c-1,0.6-1,1.5,0,2
	c1,0.6,2.6,0.6,3.5,0c0.9-0.5,1-1.3,0.3-1.9l19.7-11.4l0-11.8l7.8-4.5l27.3,15.8l-12.7,7.3h-16.4l-26,15l-19.7,0l-27.4-15.8
	c0.7-0.6,0.6-1.4-0.3-1.9c-1-0.6-2.6-0.6-3.5,0c-1,0.6-1,1.5,0,2c0.9,0.5,2.3,0.6,3.2,0.1l27.7,16l0.1,0l20,0l26-15h15.3l-76.1,43.9
	H2.4L0,329.8l0,0.6l2.5-1.5h53.8l90.1-52l10.2,5.9l-91,52.5l-0.1,0.1l0,31.4l-31.1,18c-1-0.4-2.3-0.4-3.2,0.1c-1,0.6-1,1.5,0,2
	c1,0.6,2.6,0.6,3.5,0c0.9-0.5,1-1.3,0.3-1.9l31.1-18l0-31.4l91.1-52.6l10.7,6.2l-53.4,30.8l-0.1,0.1l0,26.9l91.4,52.8h4.1
	c0,0,0,0,0,0c-0.9-0.5-2.3-0.6-3.2-0.1l-67.4-38.9h20.3l36.4,21c-0.7,0.6-0.6,1.4,0.3,1.9c1,0.6,2.6,0.6,3.5,0c1-0.6,1-1.5,0-2
	c-0.9-0.5-2.3-0.6-3.2-0.1l-36.7-21.2l-0.1,0h-21.4L115,346.9l0-26.3l43-24.8l0,13.4l-26.5,15.3l0,13.5c-0.5,0-1.1,0.2-1.5,0.4
	c-1,0.6-1,1.5,0,2c1,0.6,2.6,0.6,3.5,0c1-0.6,1-1.5,0-2c-0.4-0.2-0.9-0.4-1.5-0.4l0-13.2l26.5-15.3l0-14l10-5.8l10.9,6.3l0.1,0.1
	l6.7-3.9l0,29.2l-23.3,13.4c-1-0.4-2.3-0.4-3.2,0.1c-1,0.6-1,1.5,0,2c1,0.6,2.6,0.6,3.5,0c0.9-0.5,1-1.3,0.3-1.9l23.3-13.4l0-11.9
	l17.4,10.1v11.3l-38,21.9c-1-0.4-2.3-0.4-3.2,0.1c-1,0.6-1,1.5,0,2c1,0.6,2.6,0.6,3.5,0c0.9-0.5,1-1.3,0.3-1.9l37.8-21.8l0.1-0.1
	v-11.9l-18-10.4l0-17.3l9.5-5.5l8.1,4.7l0,10.6l12.2,7.1c-0.7,0.6-0.6,1.4,0.3,1.9c1,0.6,2.6,0.6,3.5,0c1-0.6,1-1.5,0-2
	c-0.9-0.5-2.3-0.6-3.2-0.1l-12.2-7.1l0-9.9l26.6,15.4l0,23.2L191.5,353l-0.1,0.1l0,8.7l22.7,13.1c-0.7,0.6-0.6,1.4,0.3,1.9
	c1,0.6,2.6,0.6,3.5,0c1-0.6,1-1.5,0-2c-0.9-0.5-2.3-0.6-3.2-0.1l-22.7-13.1l0-8.1l40.1-23.1l0.1-0.1l0-23.8L196.9,286l7.1-4.1
	l45.7,26.4l0,43.4l13.3,7.7l0,39.9l1,0.6h1.1l-1.6-0.9l0-39.3l69.6,40.2h1.1l-84.1-48.6l0-43.4l-45.7-26.4l8.1-4.7l44.5,25.7
	l-0.1,0.2l42.4,24.5v5.3l8.6,5v15.3l63.2,36.5c-0.7,0.6-0.6,1.4,0.3,1.9c1,0.6,2.6,0.6,3.5,0c1-0.6,1-1.5,0-2
	c-0.9-0.5-2.3-0.6-3.2-0.1l-63.2-36.5V338l10.9,6.3c-0.7,0.6-0.6,1.4,0.3,1.9c1,0.6,2.6,0.6,3.5,0c1-0.6,1-1.5,0-2
	c-0.9-0.5-2.3-0.6-3.2-0.1l-20.1-11.6V327l-42-24.3h19.5l84,48.5l0,12.7l33.3,19.2c-0.7,0.6-0.6,1.4,0.3,1.9c1,0.6,2.6,0.6,3.5,0
	c1-0.6,1-1.5,0-2c-0.9-0.5-2.3-0.6-3.2-0.1L362,363.6l0-12.7l-83.5-48.2h56.8l68.3,39.4l0.1,0l79.9,0l46.8-27c1,0.4,2.3,0.4,3.2-0.1
	c1-0.6,1-1.5,0-2c-1-0.6-2.6-0.6-3.5,0c-0.9,0.5-1,1.3-0.3,1.9l-46.4,26.8l-79.6,0l-68.3-39.4l-0.1,0h-78l-44.3-25.6l8.4-4.8
	l32.1,18.5l0.1,0h90.4l63.4,36.6c-0.7,0.6-0.6,1.4,0.3,1.9c1,0.6,2.6,0.6,3.5,0c1-0.6,1-1.5,0-2c-0.9-0.5-2.3-0.6-3.2-0.1
	l-63.7-36.8l-0.1,0h-66.9l17.5-10.1l47.3,0c0.1,0.3,0.3,0.5,0.7,0.7c1,0.6,2.6,0.6,3.5,0c1-0.6,1-1.5,0-2c-1-0.6-2.6-0.6-3.5,0
	c-0.4,0.2-0.6,0.5-0.7,0.7l-47.5,0l-18.5,10.7h-22.4l-31.8-18.3l7.4-4.3l28.1,16.2l0.1,0H269l23-13.3h69.3l43.4-25.1
	c1,0.4,2.3,0.3,3.2-0.2c1-0.6,1-1.5,0-2c-1-0.6-2.6-0.6-3.5,0c-0.9,0.5-1,1.3-0.2,1.9l-43,24.8h-69.3l-23,13.3h-11l-20.4-11.8h10.2
	l9.9,5.7l0.1,0h7.7l17.2-9.9c1,0.4,2.3,0.3,3.2-0.2c1-0.6,1-1.5,0-2c-1-0.6-2.6-0.6-3.5,0c-0.9,0.5-1,1.3-0.2,1.9l-16.8,9.7h-7.4
	l-9.9-5.7l-0.1,0h-11.3l-6.4-3.7l10.4-6l15.3,0l19-11c1,0.4,2.3,0.4,3.2-0.1c1-0.6,1-1.5,0-2c-1-0.6-2.6-0.6-3.5,0
	c-0.9,0.5-1,1.3-0.3,1.9l-18.6,10.7l-14.2,0l4.5-2.6l0.4-0.2l-7.6-4.4l20.5-11.9h21.6l22.8,13.2c-0.7,0.6-0.6,1.4,0.3,1.9
	c1,0.6,2.6,0.6,3.5,0c1-0.6,1-1.5,0-2c-0.9-0.5-2.3-0.6-3.2-0.1l-11.7-6.8l42.6,0l12.2-7.1h24.4c0.1,0.3,0.3,0.5,0.7,0.7
	c1,0.6,2.6,0.6,3.5,0c1-0.6,1-1.5,0-2c-1-0.6-2.6-0.6-3.5,0c-0.4,0.2-0.6,0.5-0.7,0.7h-24.6l-12.2,7.1l-43.4,0l-10.4-6l-0.1,0h-20.8
	l8.5-4.9h48.9l12.6-7.3h37.4l17.9-10.3c1,0.4,2.3,0.4,3.2-0.1c1-0.6,1-1.5,0-2c-1-0.6-2.6-0.6-3.5,0c-0.9,0.5-1,1.3-0.3,1.9
	l-17.5,10.1h-36.3l42-24.2l30.8,0l13-7.5c1,0.4,2.3,0.4,3.2-0.1c1-0.6,1-1.5,0-2c-1-0.6-2.6-0.6-3.5,0c-0.9,0.5-1,1.3-0.3,1.9
	l-12.6,7.3l-30.8,0l-55.6,32.1h-48.9l-30.4,17.6l-14.2-8.2l35.4-20.4l38.1,0l43.2-25c1,0.4,2.3,0.4,3.2-0.1c1-0.6,1-1.5,0-2
	c-1-0.6-2.6-0.6-3.5,0c-0.9,0.5-1,1.3-0.3,1.9l-42.8,24.7l-37,0l46.6-26.9l0.1-0.1V175l69.7-40.3c1,0.4,2.3,0.4,3.2-0.1
	c1-0.6,1-1.5,0-2c-1-0.6-2.6-0.6-3.5,0c-0.9,0.5-1,1.3-0.3,1.9l-69.6,40.2l-0.1,0.1v21.6l-83.1,48l-12.2-7l49.8-28.8l0.1-0.1l0-43.4
	l44.4-25.6c1,0.4,2.3,0.4,3.2-0.1c1-0.6,1-1.5,0-2c-1-0.6-2.6-0.6-3.5,0c-0.9,0.5-1,1.3-0.3,1.9l-44.2,25.5l-0.1,0.1l0,43.4
	l-50,28.9l-7.5-4.3l37-21.4l0-50.9L258,150l0-19.2l15.7-9.1c1,0.4,2.3,0.4,3.2-0.1c1-0.6,1-1.5,0-2c-1-0.6-2.6-0.6-3.5,0
	c-0.9,0.5-1,1.3-0.3,1.9l-15.7,9.1l0,19.2l-17.8,10.3l0,50.9l-37,21.4l-10.2-5.9l28.3-16.4l0-85.1h-0.6l0,49.8l-14.2-8.2l0-27.9
	c0.5,0,1.1-0.2,1.5-0.4c1-0.6,1-1.5,0-2c-1-0.6-2.6-0.6-3.5,0c-1,0.6-1,1.5,0,2c0.4,0.2,0.9,0.4,1.5,0.4l0,28.3l14.8,8.5l0,15
	l-18.7-10.8c0.7-0.6,0.6-1.3-0.3-1.8c-1-0.6-2.6-0.6-3.5,0c-1,0.6-1,1.5,0,2c0.9,0.5,2.3,0.6,3.3,0.1l19.2,11.1l0,18.6L191.9,226
	l-9-5.2l13.8-7.9l0-11.7l-3.5-2v-6l-24.8-14.3v-10.1l-20.2-11.7c0.7-0.6,0.6-1.4-0.3-1.9c-1-0.6-2.6-0.6-3.5,0c-1,0.6-1,1.5,0,2
	c0.9,0.5,2.3,0.6,3.2,0.1l20.2,11.7v10.1l24.8,14.3v5.3l-41.7-24.1c0.7-0.6,0.6-1.3-0.3-1.8c-1-0.6-2.6-0.6-3.5,0c-1,0.6-1,1.5,0,2
	c0.9,0.5,2.3,0.6,3.3,0.1l33.4,19.3l-16.8,0l-19.2-11.1c0.7-0.6,0.6-1.4-0.3-1.9c-1-0.6-2.6-0.6-3.5,0c-1,0.6-1,1.5,0,2
	c0.9,0.5,2.3,0.6,3.2,0.1l19.7,11.3l17.8,0v0l11.4,6.6l0,11.1l-13.8,7.9l-2.6-1.5l-0.1-0.1l-3.5,2l-57.8-33.4l-0.1,0l-15.8,0
	c-0.1-0.3-0.3-0.5-0.7-0.7c-1-0.6-2.6-0.6-3.5,0s-1,1.5,0,2c1,0.6,2.6,0.6,3.5,0c0.4-0.2,0.6-0.5,0.7-0.7l15.6,0l57.5,33.2l-8.8,5.1
	l-48-27.7c0.7-0.6,0.6-1.4-0.3-1.9c-1-0.6-2.6-0.6-3.5,0c-1,0.6-1,1.5,0,2c0.9,0.5,2.3,0.6,3.2,0.1l48,27.7l-9.1,5.3l-67.9-39.2
	l0-32.8l32-18.5v0l29.5,0l23.3-13.5c1,0.4,2.3,0.4,3.2-0.1c1-0.6,1-1.5,0-2c-1-0.6-2.6-0.6-3.5,0c-0.9,0.5-1,1.3-0.3,1.9l-22.9,13.2
	l-28.4,0l38.9-22.5l0.1-0.1l0-29.2c0.5,0,1.1-0.2,1.5-0.4c1-0.6,1-1.5,0-2c-1-0.6-2.6-0.6-3.5,0c-1,0.6-1,1.5,0,2
	c0.4,0.2,0.9,0.4,1.5,0.4l0,28.9l-64.7,37.4l-39.8-23l0-25.8L27.8,90.2c0.7-0.6,0.6-1.4-0.3-1.9c-1-0.6-2.6-0.6-3.5,0
	c-1,0.6-1,1.5,0,2c0.9,0.5,2.3,0.6,3.2,0.1l28.3,16.3l0,25.8l39.8,23l-6.6,3.8l-0.1,0.1l0,25.8l-11.5-6.6l0-16.1l-23.3-13.5
	c0.7-0.6,0.6-1.4-0.3-1.9c-1-0.6-2.6-0.6-3.5,0c-1,0.6-1,1.5,0,2c0.9,0.5,2.3,0.6,3.2,0.1L76.5,163l0,16.1l12,6.9l0,7l67.9,39.2
	l-10,5.8l-131.6-76l0-27.6L0,125.9L0,126.6z M179.5,219.6l65.7,37.9l-65.7,37.9l-65.7-37.9L179.5,219.6z"/>
</svg>
