<?xml version="1.0" encoding="utf-8"?>
<!-- Generator: Adobe Illustrator 24.0.2, SVG Export Plug-In . SVG Version: 6.00 Build 0)  -->
<svg version="1.1" id="Ñëîé_1" xmlns="http://www.w3.org/2000/svg" xmlns:xlink="http://www.w3.org/1999/xlink" x="0px" y="0px"
	 viewBox="0 0 600 400" style="enable-background:new 0 0 600 400;" xml:space="preserve">
<style type="text/css">
	.st0{opacity:0.8;fill:url(#SVGID_1_);}
	.st1{opacity:0.1;fill:#42E8E0;}
	.st2{opacity:0.3;}
	.st3{fill:url(#SVGID_2_);}
	.st4{opacity:0.3;fill:#0F054C;}
	.st5{fill:url(#SVGID_3_);}
	.st6{fill:#0F054C;}
	.st7{fill:#42E8E0;}
	.st8{opacity:0.4;fill:#42E8E0;}
	.st9{fill:url(#SVGID_4_);}
	.st10{fill:url(#SVGID_5_);}
	.st11{fill:#FFFFFF;}
	.st12{fill:url(#SVGID_6_);}
	.st13{fill:url(#SVGID_7_);}
	.st14{fill:url(#SVGID_8_);}
	.st15{fill:url(#SVGID_9_);}
	.st16{fill:#5351AF;}
	.st17{fill:url(#SVGID_10_);}
	.st18{fill:url(#SVGID_11_);}
	.st19{fill:url(#SVGID_12_);}
	.st20{fill:url(#SVGID_13_);}
	.st21{fill:url(#SVGID_14_);}
	.st22{fill:url(#SVGID_15_);}
	.st23{opacity:0.3;fill:#24126A;}
	.st24{fill:url(#SVGID_16_);}
	.st25{fill:url(#SVGID_17_);}
	.st26{fill:#24126A;}
	.st27{opacity:0.51;}
	.st28{fill:#453C9E;}
	.st29{fill:url(#SVGID_18_);}
	.st30{fill:url(#SVGID_19_);}
	.st31{opacity:0.51;fill:#453C9E;}
	.st32{clip-path:url(#SVGID_22_);}
	.st33{fill:url(#SVGID_23_);}
	.st34{opacity:0.8;fill:url(#SVGID_24_);}
	.st35{opacity:0.5;}
	.st36{opacity:0.67;fill:#0F054C;}
	.st37{opacity:0.9;fill:#080344;}
	.st38{opacity:0.5;fill:url(#SVGID_25_);}
	.st39{opacity:0.8;fill:#42E8E0;}
	.st40{fill:url(#SVGID_26_);}
	.st41{fill:url(#SVGID_27_);}
	.st42{fill:#251C72;}
	.st43{opacity:0.5;fill:url(#SVGID_28_);}
	.st44{opacity:0.6;fill:#42E8E0;}
	.st45{fill:url(#SVGID_29_);}
	.st46{fill:url(#SVGID_30_);}
	.st47{fill:url(#SVGID_31_);}
	.st48{fill:url(#SVGID_32_);}
	.st49{opacity:0.5;fill:url(#SVGID_33_);}
	.st50{fill:#BCBEFF;}
	.st51{fill:url(#SVGID_34_);}
	.st52{fill:url(#SVGID_35_);}
	.st53{opacity:0.5;fill:url(#SVGID_36_);}
	.st54{fill:url(#SVGID_37_);}
	.st55{fill:url(#SVGID_38_);}
	.st56{opacity:0.5;fill:url(#SVGID_39_);}
	.st57{opacity:0.8;fill:url(#SVGID_40_);}
	.st58{fill:url(#SVGID_41_);}
	.st59{fill:url(#SVGID_42_);}
	.st60{fill:url(#SVGID_43_);}
	.st61{fill:url(#SVGID_44_);}
	.st62{fill:url(#SVGID_45_);}
	.st63{opacity:0.5;fill:url(#SVGID_46_);}
	.st64{fill:url(#SVGID_47_);}
	.st65{opacity:0.6;fill:#0F054C;}
	.st66{fill:url(#SVGID_48_);}
	.st67{fill:url(#SVGID_49_);}
	.st68{opacity:0.4;}
</style>
<radialGradient id="SVGID_1_" cx="-13.0002" cy="93.5939" r="439.3419" gradientTransform="matrix(-1 0 0 1 600 0)" gradientUnits="userSpaceOnUse">
	<stop  offset="0" style="stop-color:#FF2C9C"/>
	<stop  offset="3.006321e-02" style="stop-color:#F62F9F"/>
	<stop  offset="0.2023" style="stop-color:#C63EB0"/>
	<stop  offset="0.3737" style="stop-color:#9E4BBE"/>
	<stop  offset="0.5413" style="stop-color:#7F54C9"/>
	<stop  offset="0.7039" style="stop-color:#695BD1"/>
	<stop  offset="0.8594" style="stop-color:#5C60D5"/>
	<stop  offset="1" style="stop-color:#5761D7"/>
</radialGradient>
<path class="st0" d="M583.4,39.7c-1.2-0.7-3.3-0.7-4.5,0c-0.9,0.5-1.2,1.3-0.7,2l-69.5,40.1l0,50.7l-16.9,9.8l0,55.1l-58,33.5
	l-9-5.2l44.7-25.8l0-30.2l-0.2-0.1l-50.9-29.4v-10.2l28.8-16.6c1.2,0.5,3,0.5,4.1-0.2c1.2-0.7,1.2-1.9,0-2.6c-1.2-0.7-3.3-0.7-4.5,0
	c-1.1,0.6-1.2,1.6-0.3,2.4l-28.8,16.6v11.1l0.2,0.1l50.9,29.4l0,29.4L434.9,219l0-12.6l15.5-8.9c1.2,0.5,3,0.5,4.1-0.2
	c1.2-0.7,1.2-1.9,0-2.6c-1.2-0.7-3.3-0.7-4.5,0c-1.1,0.6-1.2,1.6-0.3,2.4l-15.5,8.9l0,13.4l-10.2,5.9l-12.1-7l0-21.9l22.8-13.2
	l0-15.2l-0.2-0.1l-48-27.7c0.9-0.7,0.8-1.7-0.3-2.4c-1.2-0.7-3.3-0.7-4.5,0c-1.2,0.7-1.2,1.9,0,2.6c1.1,0.6,2.9,0.7,4.1,0.2
	l48.2,27.8l0,14.3l-22.1,12.8l0-15.1l-0.2-0.1l-29.4-17c0.9-0.7,0.8-1.7-0.3-2.4c-1.2-0.7-3.3-0.7-4.5,0c-1.2,0.7-1.2,1.9,0,2.6
	c1.1,0.6,2.9,0.7,4.1,0.2l29.5,17.1l0,37l-8.5-4.9l-14,8.1l-12.7-7.3l0-17.8l-0.2-0.1l-33.5-19.3l0-16.8c0.7,0,1.4-0.2,1.9-0.5
	c1.2-0.7,1.2-1.9,0-2.6c-1.2-0.7-3.3-0.7-4.5,0c-1.2,0.7-1.2,1.9,0,2.6c0.5,0.3,1.2,0.5,1.9,0.5l0,17.2l0.2,0.1l33.5,19.3l0,17
	l-54.5-31.5l0-33.4l29.6-17.1l27.1,0l0.1,0l46.6-26.9c1.2,0.5,3,0.5,4.1-0.2c1.2-0.7,1.2-1.9,0-2.6c-1.2-0.7-3.3-0.7-4.5,0
	c-1.1,0.6-1.2,1.7-0.3,2.4l-46.1,26.6l-25.7,0l85.5-49.4c1.2,0.5,3,0.5,4.1-0.2c1.2-0.7,1.2-1.9,0-2.6c-1.2-0.7-3.3-0.7-4.5,0
	c-1.1,0.6-1.2,1.7-0.3,2.4L320,148.1l0,34.2l0.2,0.1l67.7,39.1l-13.6,7.9l-115.6-66.8l0-39.8l-0.2-0.1l-39.3-22.7
	c0.9-0.7,0.8-1.7-0.3-2.4c-1.2-0.7-3.3-0.7-4.5,0c-1.2,0.7-1.2,1.9,0,2.6c1.1,0.6,2.9,0.7,4.1,0.2l39.5,22.8l0,39.8l0.2,0.1
	l115.5,66.7l-13,7.5l-114.4-66l-68.2,0l-42.6-24.6l0-37.8c0.4-0.1,0.9-0.2,1.2-0.4c1.2-0.7,1.2-1.9,0-2.6c-1.2-0.7-3.3-0.7-4.5,0
	c-1.2,0.7-1.2,1.9,0,2.6c0.7,0.4,1.6,0.6,2.5,0.5l0,38.1l0.2,0.1l43,24.8l68.2,0l96.5,55.7l-19.4,0l-32.9-19h-25.4l-0.1,0L229.6,229
	c-1.2-0.5-3-0.5-4.1,0.2c-1.2,0.7-1.2,1.9,0,2.6c1.2,0.7,3.3,0.7,4.5,0c1.1-0.6,1.2-1.7,0.3-2.4l34.8-20.1h25l32.9,19l20.8,0
	l16.1,9.3l-34.6,20l-9.9-5.7v-14.9l-25-14.4c0.9-0.7,0.8-1.7-0.3-2.4c-1.2-0.7-3.3-0.7-4.5,0c-1.2,0.7-1.2,1.9,0,2.6
	c1.1,0.6,2.9,0.7,4.1,0.2l25,14.4v14.1L288,236.2h-12.6l-0.1,0l-15.1,8.7c-1.2-0.5-3-0.5-4.1,0.2c-1.2,0.7-1.2,1.9,0,2.6
	c1.2,0.7,3.3,0.7,4.5,0c1.1-0.6,1.2-1.7,0.3-2.4l14.6-8.4h12.3l36.7,21.2l-6.7,3.9l21.3,12.3l-10,5.8h-15.1l-10.8-6.2
	c0.9-0.7,0.7-1.7-0.4-2.3c-1.2-0.7-3.3-0.7-4.5,0c-1.2,0.7-1.2,1.9,0,2.6c1.1,0.7,2.9,0.7,4.1,0.2l11.3,6.5h14l-25.4,14.7
	l-59.8-34.5l-43,0l-0.1,0l-24.2,14c-1.2-0.5-3-0.5-4.1,0.2c-1.2,0.7-1.2,1.9,0,2.6c1.2,0.7,3.3,0.7,4.5,0c1.1-0.6,1.2-1.7,0.3-2.4
	l23.8-13.7l42.7,0l46.1,26.6h-19.7L249.6,277c0.9-0.7,0.8-1.7-0.3-2.4c-1.2-0.7-3.3-0.7-4.5,0c-1.2,0.7-1.2,1.9,0,2.6
	c1.1,0.6,2.9,0.7,4.1,0.2l19.8,11.4h21.2l11.9,6.9l-30.4,17.5l-97.1,0L99,269.8c0.9-0.7,0.8-1.7-0.3-2.4c-1.2-0.7-3.3-0.7-4.5,0
	c-1.2,0.7-1.2,1.9,0,2.6c1.1,0.6,2.9,0.7,4.1,0.2l75.9,43.8l96,0l-12,7l-71.9,0l-0.1,0l-35.4,20.5c-1.2-0.5-3-0.5-4.1,0.2
	c-1.2,0.7-1.2,1.9,0,2.6c1.2,0.7,3.3,0.7,4.5,0c1.1-0.6,1.2-1.7,0.3-2.4l35-20.2l71.9,0l0.1,0l81.4-47l9,5.2l-85.6,49.4h-62.6
	l-0.1,0L125,373l-104.8,0L0,361.3v0.8l20.1,11.6l105.1,0l0.1,0l47.5-27.4l0,16.2l-31.3,18.1c-1.2-0.5-3-0.5-4.1,0.2
	c-1.2,0.7-1.2,1.9,0,2.6c1.2,0.7,3.3,0.7,4.5,0c1.1-0.6,1.2-1.7,0.3-2.4l31.3-18.1l0-16.9h-0.2l27.6-15.9h62.6l0.1,0l86-49.7
	l10.3,5.9l-167,96.4l0,17.4h0.7l0-17l167-96.4l12.7,7.3l-86.1,49.7l0,8.9l-15.3,8.8v20.4l-29.6,17.1c-1.2-0.5-3-0.5-4.1,0.2
	c-0.5,0.3-0.7,0.6-0.9,0.9h6.2c-0.1-0.2-0.3-0.5-0.5-0.7l29.6-17.1v-20.4l14.6-8.4l0,32.7l8.6,5l-15.5,8.9h1.4l14.8-8.5l14.8,8.5
	h1.4l-24.8-14.3l0-41.6l86.1-49.7l11.6,6.7l-60.9,35.2c-1.2-0.5-3-0.5-4.1,0.2c-1.2,0.7-1.2,1.9,0,2.6c1.2,0.7,3.3,0.7,4.5,0
	c1.1-0.6,1.2-1.6,0.3-2.4l60.9-35.2l11.2,6.4l-72.9,42.1h-19.8c-0.1-0.3-0.4-0.7-0.9-0.9c-1.2-0.7-3.3-0.7-4.5,0
	c-1.2,0.7-1.2,1.9,0,2.6c1.2,0.7,3.3,0.7,4.5,0c0.5-0.3,0.8-0.6,0.9-0.9h20l0.1,0l73.3-42.3l4.5,2.6l3.5-2l17.5,10.1l0,14l-14.4,8.3
	v0h-22.6l-0.1,0l-24.8,14.3c-1.2-0.5-3-0.5-4.1,0.2c-1.2,0.7-1.2,1.9,0,2.6c1.2,0.7,3.3,0.7,4.5,0c1.1-0.6,1.2-1.7,0.3-2.4
	l24.4-14.1H408l-42.4,24.5c-1.2-0.6-3-0.5-4.2,0.1c-1.2,0.7-1.2,1.9,0,2.6c1.2,0.7,3.3,0.7,4.5,0c1.1-0.6,1.2-1.6,0.4-2.3l52.9-30.6
	l0,6.8l-31.5,18.2v12.8l-25.6,14.8c-1.2-0.5-3-0.5-4.1,0.2c-1.2,0.7-1.2,1.9,0,2.6c1.2,0.7,3.3,0.7,4.5,0c1.1-0.6,1.2-1.7,0.3-2.4
	l25.6-14.8v-12.8l31.5-18.2l0-7.6l4.4-2.5l0-14.9l-17.5-10.1l11.5-6.6l35.9,20.8l0,23.6l-24.4,14.1c-1.2-0.6-3-0.5-4.2,0.1
	c-1.2,0.7-1.2,1.9,0,2.6c1.2,0.7,3.3,0.7,4.5,0c1.1-0.6,1.2-1.6,0.4-2.3l23.7-13.7l0,19.1l-18.7,10.8l0,23.1h0.7l0-22.7l18-10.4
	l0,33.1h0.7l0-77.8L419,301.4l12.9-7.4l47,27.1l0,64.6l22.6,13l0,1.3h0.7l0-1.7l-22.6-13l0-64.6l-47-27.1l9.6-5.5l63.4,36.6l0,55.1
	l35.1,20.2h1.4l-35.8-20.6l0-55.1l-63.4-36.6l15.5-8.9l105.5,60.9l0,27.4l36.2,20.9v-0.8l-35.4-20.5l0-27.4l-59.3-34.3h46.9
	l47.8,27.6v-0.8l-47.7-27.5H504l-44.9-25.9l18-10.4l38.6,22.3l62,0l22.3,12.9v-0.8l-4.9-2.8l4.9,0v-0.7l-6.1,0l-16-9.2l-62,0
	l-10.8-6.2h26.4l0.1,0l13.2-7.6l55.1,0l0.2,0.1v-0.8l-54,0l14.9-8.6c1.2,0.5,3,0.5,4.1-0.2c1.2-0.7,1.2-1.9,0-2.6
	c-1.2-0.7-3.3-0.7-4.5,0c-1.1,0.6-1.2,1.7-0.3,2.4l-28.9,16.7h-27.4l-26.1-15l9.6-5.6l-6.2-3.6h18l23.5,13.6
	c-0.9,0.7-0.8,1.7,0.3,2.4c1.2,0.7,3.3,0.7,4.5,0c1.2-0.7,1.2-1.9,0-2.6c-1.1-0.6-2.9-0.7-4.1-0.2l-24.1-13.9H480l-13.2-7.6l8.1-4.7
	h14.4l12.6-7.3h9.4l21.3,12.3c-1,0.7-0.9,1.7,0.3,2.4c1.2,0.7,3.3,0.7,4.5,0c1.2-0.7,1.2-1.9,0-2.6c-1.1-0.6-2.8-0.7-4-0.2
	l-21.8-12.6h-9.8l-12.6,7.3h-13l25.9-15h14l29.2,16.8l54.8,0v-0.7l-54.6,0L516.2,229h-14.4l-0.1,0l-35.7,20.6l-9.4-5.4l40.3-23.3
	l28.4,0l23.5,13.5l51.1,0v-0.7l-50.9,0l-22.2-12.8l73.1,0v-0.7l-103.1,0l-0.1,0L456,243.8l-10.6-6.1l56.2-32.5l98.4,0v-0.7l-71.7,0
	l71.7-41.4v-0.8l-73.1,42.2l-24.8,0l53.3-30.8v-6.8l25.5-14.7c1.2,0.5,3,0.5,4.1-0.2c1.2-0.7,1.2-1.9,0-2.6c-1.2-0.7-3.3-0.7-4.5,0
	c-1.1,0.6-1.2,1.6-0.3,2.4l-13.9,8l0-18.6l33.7-19.4V121l-34.4,19.8l0,19.4l-10.9,6.3v6.8l-53.7,31l0.2,0.3l-56.5,32.6l-10.3-5.9
	l58-33.5l0-55.1L600,80.6v-0.8l-90.6,52.3l0-49.8l69.4-40c0,0,0.1,0.1,0.1,0.1c1.2,0.7,3.3,0.7,4.5,0
	C584.6,41.6,584.6,40.4,583.4,39.7z M486,261.9L402.7,310l-83.3-48.1l83.3-48.1L486,261.9z"/>
<path class="st1" d="M600,125.9l-14.8,8.6l0,27.6l-131.6,76l-10-5.8l67.9-39.2l0-7l12-6.9l0-16.1l23.3-13.5c1,0.4,2.3,0.4,3.2-0.1
	c1-0.6,1-1.5,0-2c-1-0.6-2.6-0.6-3.5,0c-0.9,0.5-1,1.3-0.3,1.9l-23.3,13.5l0,16.1l-11.5,6.6l0-25.8l-0.1-0.1l-6.6-3.8l39.8-23
	l0-25.8l28.3-16.3c1,0.4,2.3,0.4,3.2-0.1c1-0.6,1-1.5,0-2c-1-0.6-2.6-0.6-3.5,0c-0.9,0.5-1,1.3-0.3,1.9l-28.3,16.3l0,25.8l-39.8,23
	L439.4,118l0-28.9c0.5,0,1.1-0.2,1.5-0.4c1-0.6,1-1.5,0-2c-1-0.6-2.6-0.6-3.5,0c-1,0.6-1,1.5,0,2c0.4,0.2,0.9,0.4,1.5,0.4l0,29.2
	l0.1,0.1l38.9,22.5l-28.4,0l-22.9-13.2c0.7-0.6,0.6-1.4-0.3-1.9c-1-0.6-2.6-0.6-3.5,0c-1,0.6-1,1.5,0,2c0.9,0.5,2.3,0.6,3.2,0.1
	l23.3,13.5l29.5,0v0l32,18.5l0,32.8L443,231.9l-9.1-5.3l48-27.7c1,0.4,2.3,0.4,3.2-0.1c1-0.6,1-1.5,0-2c-1-0.6-2.6-0.6-3.5,0
	c-0.9,0.5-1,1.3-0.3,1.9l-48,27.7l-8.8-5.1l57.5-33.2l15.6,0c0.1,0.3,0.3,0.5,0.7,0.7c1,0.6,2.6,0.6,3.5,0c1-0.6,1-1.5,0-2
	c-1-0.6-2.6-0.6-3.5,0c-0.4,0.2-0.6,0.5-0.7,0.7l-15.8,0l-0.1,0L424,221l-3.5-2l-0.1,0.1l-2.6,1.5l-13.8-7.9l0-11.1l11.4-6.6v0
	l17.8,0l19.7-11.3c1,0.4,2.3,0.4,3.2-0.1c1-0.6,1-1.5,0-2c-1-0.6-2.6-0.6-3.5,0c-0.9,0.5-1,1.3-0.3,1.9L433,194.4l-16.8,0l33.4-19.3
	c1,0.4,2.4,0.4,3.3-0.1c1-0.6,1-1.5,0-2c-1-0.6-2.6-0.6-3.5,0c-0.9,0.5-1,1.3-0.3,1.8l-41.7,24.1v-5.3l24.8-14.3v-10.1l20.2-11.7
	c1,0.4,2.3,0.4,3.2-0.1c1-0.6,1-1.5,0-2c-1-0.6-2.6-0.6-3.5,0c-0.9,0.5-1,1.3-0.3,1.9l-20.2,11.7v10.1l-24.8,14.3v6l-3.5,2l0,11.7
	l13.8,7.9l-9,5.2l-28.3-16.4l0-18.6L399,180c1,0.4,2.4,0.4,3.3-0.1c1-0.6,1-1.5,0-2c-1-0.6-2.6-0.6-3.5,0c-0.9,0.5-1,1.3-0.3,1.8
	l-18.7,10.8l0-15l14.8-8.5l0-28.3c0.5,0,1.1-0.2,1.5-0.4c1-0.6,1-1.5,0-2c-1-0.6-2.6-0.6-3.5,0c-1,0.6-1,1.5,0,2
	c0.4,0.2,0.9,0.4,1.5,0.4l0,27.9l-14.2,8.2l0-49.8h-0.6l0,85.1l28.3,16.4l-10.2,5.9l-37-21.4l0-50.9l-17.8-10.3l0-19.2l-15.7-9.1
	c0.7-0.6,0.6-1.4-0.3-1.9c-1-0.6-2.6-0.6-3.5,0c-1,0.6-1,1.5,0,2c0.9,0.5,2.3,0.6,3.2,0.1l15.7,9.1l0,19.2l17.8,10.3l0,50.9l37,21.4
	l-7.5,4.3l-50-28.9l0-43.4l-0.1-0.1L295,139c0.7-0.6,0.6-1.4-0.3-1.9c-1-0.6-2.6-0.6-3.5,0c-1,0.6-1,1.5,0,2
	c0.9,0.5,2.3,0.6,3.2,0.1l44.4,25.6l0,43.4l0.1,0.1l49.8,28.8l-12.2,7l-83.1-48v-21.6l-0.1-0.1l-69.6-40.2c0.7-0.6,0.6-1.4-0.3-1.9
	c-1-0.6-2.6-0.6-3.5,0c-1,0.6-1,1.5,0,2c0.9,0.5,2.3,0.6,3.2,0.1l69.7,40.3v21.6l0.1,0.1l46.6,26.9l-37,0l-42.8-24.7
	c0.7-0.6,0.6-1.4-0.3-1.9c-1-0.6-2.6-0.6-3.5,0c-1,0.6-1,1.5,0,2c0.9,0.5,2.3,0.6,3.2,0.1l43.2,25l38.1,0l35.4,20.4l-14.2,8.2
	l-30.4-17.6h-48.9l-55.6-32.1l-30.8,0l-12.6-7.3c0.7-0.6,0.6-1.4-0.3-1.9c-1-0.6-2.6-0.6-3.5,0c-1,0.6-1,1.5,0,2
	c0.9,0.5,2.3,0.6,3.2,0.1l13,7.5l30.8,0l42,24.2h-36.3L215,217.8c0.7-0.6,0.6-1.4-0.3-1.9c-1-0.6-2.6-0.6-3.5,0c-1,0.6-1,1.5,0,2
	c0.9,0.5,2.3,0.6,3.2,0.1l17.9,10.3h37.4l12.6,7.3h48.9l8.5,4.9H319l-0.1,0l-10.4,6l-43.4,0l-12.2-7.1h-24.6
	c-0.1-0.3-0.3-0.5-0.7-0.7c-1-0.6-2.6-0.6-3.5,0c-1,0.6-1,1.5,0,2c1,0.6,2.6,0.6,3.5,0c0.4-0.2,0.6-0.5,0.7-0.7h24.4l12.2,7.1
	l42.6,0l-11.7,6.8c-1-0.4-2.3-0.4-3.2,0.1c-1,0.6-1,1.5,0,2c1,0.6,2.6,0.6,3.5,0c0.9-0.5,1-1.3,0.3-1.9l22.8-13.2h21.6l20.5,11.9
	l-7.6,4.4l0.4,0.2l4.5,2.6l-14.2,0l-18.6-10.7c0.7-0.6,0.6-1.4-0.3-1.9c-1-0.6-2.6-0.6-3.5,0c-1,0.6-1,1.5,0,2
	c0.9,0.5,2.3,0.6,3.2,0.1l19,11l15.3,0l10.4,6l-6.4,3.7h-11.3l-0.1,0l-9.9,5.7h-7.4l-16.8-9.7c0.8-0.6,0.7-1.4-0.2-1.9
	c-1-0.6-2.6-0.6-3.5,0c-1,0.6-1,1.5,0,2c0.9,0.5,2.2,0.6,3.2,0.2l17.2,9.9h7.7l0.1,0l9.9-5.7h10.2l-20.4,11.8h-11l-23-13.3h-69.3
	l-43-24.8c0.7-0.6,0.7-1.4-0.2-1.9c-1-0.6-2.6-0.6-3.5,0c-1,0.6-1,1.5,0,2c0.9,0.5,2.2,0.6,3.2,0.2l43.4,25.1H308l23,13.3h11.3
	l0.1,0l28.1-16.2l7.4,4.3l-31.8,18.3h-22.4l-18.5-10.7l-47.5,0c-0.1-0.3-0.3-0.5-0.7-0.7c-1-0.6-2.6-0.6-3.5,0c-1,0.6-1,1.5,0,2
	c1,0.6,2.6,0.6,3.5,0c0.4-0.2,0.6-0.5,0.7-0.7l47.3,0l17.5,10.1h-66.9l-0.1,0l-63.7,36.8c-1-0.4-2.3-0.4-3.2,0.1c-1,0.6-1,1.5,0,2
	c1,0.6,2.6,0.6,3.5,0c0.9-0.5,1-1.3,0.3-1.9l63.4-36.6h90.4l0.1,0l32.1-18.5l8.4,4.8l-44.3,25.6h-78l-0.1,0l-68.3,39.4l-79.6,0
	L70,314.9c0.7-0.6,0.6-1.4-0.3-1.9c-1-0.6-2.6-0.6-3.5,0c-1,0.6-1,1.5,0,2c0.9,0.5,2.3,0.6,3.2,0.1l46.8,27l79.9,0l0.1,0l68.3-39.4
	h56.8L238,350.9l0,12.7l-33.3,19.2c-1-0.4-2.3-0.4-3.2,0.1c-1,0.6-1,1.5,0,2c1,0.6,2.6,0.6,3.5,0c0.9-0.5,1-1.3,0.3-1.9l33.3-19.2
	l0-12.7l84-48.5h19.5l-42,24.3v5.3L279.9,344c-1-0.4-2.3-0.4-3.2,0.1c-1,0.6-1,1.5,0,2c1,0.6,2.6,0.6,3.5,0c0.9-0.5,1-1.3,0.3-1.9
	l10.9-6.3v14.6l-63.2,36.5c-1-0.4-2.3-0.4-3.2,0.1c-1,0.6-1,1.5,0,2c1,0.6,2.6,0.6,3.5,0c0.9-0.5,1-1.3,0.3-1.9l63.2-36.5v-15.3
	l8.6-5v-5.3l42.4-24.5l-0.1-0.2l44.5-25.7l8.1,4.7L349.7,308l0,43.4L265.6,400h1.1l69.6-40.2l0,39.3l-1.6,0.9h1.1l1-0.6l0-39.9
	l13.3-7.7l0-43.4l45.7-26.4l7.1,4.1l-35.3,20.4l0,23.8l0.1,0.1l40.1,23.1l0,8.1l-22.7,13.1c-1-0.4-2.3-0.4-3.2,0.1c-1,0.6-1,1.5,0,2
	c1,0.6,2.6,0.6,3.5,0c0.9-0.5,1-1.3,0.3-1.9l22.7-13.1l0-8.7l-0.1-0.1l-40.1-23.1l0-23.2l26.6-15.4l0,9.9l-12.2,7.1
	c-1-0.4-2.3-0.4-3.2,0.1c-1,0.6-1,1.5,0,2c1,0.6,2.6,0.6,3.5,0c0.9-0.5,1-1.3,0.3-1.9l12.2-7.1l0-10.6l8.1-4.7l9.5,5.5l0,17.3
	l-18,10.4v11.9l0.1,0.1l37.8,21.8c-0.7,0.6-0.6,1.4,0.3,1.9c1,0.6,2.6,0.6,3.5,0c1-0.6,1-1.5,0-2c-0.9-0.5-2.3-0.6-3.2-0.1l-38-21.9
	v-11.3l17.4-10.1l0,11.9l23.3,13.4c-0.7,0.6-0.6,1.4,0.3,1.9c1,0.6,2.6,0.6,3.5,0c1-0.6,1-1.5,0-2c-0.9-0.5-2.3-0.6-3.2-0.1
	l-23.3-13.4l0-29.2l6.7,3.9l0.1-0.1l10.9-6.3l10,5.8l0,14l26.5,15.3l0,13.2c-0.5,0-1.1,0.2-1.5,0.4c-1,0.6-1,1.5,0,2
	c1,0.6,2.6,0.6,3.5,0c1-0.6,1-1.5,0-2c-0.4-0.2-0.9-0.4-1.5-0.4l0-13.5L442,309.1l0-13.4l43,24.8l0,26.3l-23.3,13.5h-21.4l-0.1,0
	l-36.7,21.2c-1-0.4-2.3-0.4-3.2,0.1c-1,0.6-1,1.5,0,2c1,0.6,2.6,0.6,3.5,0c0.9-0.5,1-1.3,0.3-1.9l36.4-21h20.3l-67.4,38.9
	c-1-0.4-2.3-0.4-3.2,0.1c0,0,0,0,0,0h4.1l91.4-52.8l0-26.9l-0.1-0.1l-53.4-30.8l10.7-6.2l91.1,52.6l0,31.4l31.1,18
	c-0.7,0.6-0.6,1.4,0.3,1.9c1,0.6,2.6,0.6,3.5,0c1-0.6,1-1.5,0-2c-0.9-0.5-2.3-0.6-3.2-0.1l-31.1-18l0-31.4l-0.1-0.1l-91-52.5
	l10.2-5.9l90.1,52h53.8l2.5,1.5v-0.6l-2.4-1.4h-53.8l-76.1-43.9h15.3l26,15l20,0l0.1,0l27.7-16c1,0.4,2.3,0.4,3.2-0.1
	c1-0.6,1-1.5,0-2c-1-0.6-2.6-0.6-3.5,0c-0.9,0.5-1,1.3-0.3,1.9l-27.4,15.8l-19.7,0l-26-15h-16.4l-12.7-7.3l27.3-15.8l7.8,4.5l0,11.8
	l19.7,11.4c-0.7,0.6-0.6,1.4,0.3,1.9c1,0.6,2.6,0.6,3.5,0c1-0.6,1-1.5,0-2c-0.9-0.5-2.3-0.6-3.2-0.1l-19.7-11.4l0-11.1l21,12.1h10
	l0.1,0l11.9-6.9c1,0.4,2.3,0.4,3.2-0.1c1-0.6,1-1.5,0-2c-1-0.6-2.6-0.6-3.5,0c-0.9,0.5-1,1.3-0.3,1.9l-11.5,6.7H511L482,260.5l5.3-3
	l-0.4-0.2l-16.4-9.4l7.9-4.5h11.9l8.5,4.9c-0.7,0.6-0.6,1.3,0.3,1.8c1,0.6,2.6,0.6,3.5,0c1-0.6,1-1.5,0-2c-0.9-0.5-2.3-0.6-3.3-0.1
	l-8.9-5.1h-11.1l20-11.6l47.2,27.2h33.9l0.1,0l19.1-11c0.1,0.1,0.3,0.1,0.4,0.1v-2.6c-0.3,0.1-0.5,0.2-0.7,0.3
	c-0.9,0.5-1,1.3-0.3,1.9l-18.8,10.8h-33.6l-36.4-21l15.6,0l15.2,8.8c-0.7,0.6-0.6,1.4,0.3,1.9c1,0.6,2.6,0.6,3.5,0c1-0.6,1-1.5,0-2
	c-0.9-0.5-2.3-0.6-3.2-0.1l-15.6-9l-16.7,0l-9.4-5.4l23.9-13.8l76.1,0v-0.6l-75.2,0l9.5-5.5l56.6,0l0.1,0l9-5.2v-0.6l-9.2,5.3
	l-56.6,0l-0.1,0l-64.2,37.1l-7.1-4.1l67.5-39l49.3,0l0.1,0l20.3-11.7V192l-20.5,11.9l-49.3,0l-0.1,0L462.2,243l-8.1-4.7l131.6-76
	l0-27.6l14.3-8.2V125.9z M486.2,257.5l-65.7,37.9l-65.7-37.9l65.7-37.9L486.2,257.5z"/>
<g>
	<g>
		<g>
			<g class="st2">
				<linearGradient id="SVGID_2_" gradientUnits="userSpaceOnUse" x1="494.2589" y1="331.3664" x2="534.6429" y2="354.6822">
					<stop  offset="0" style="stop-color:#BCBEFF"/>
					<stop  offset="0.2271" style="stop-color:#AAADF8"/>
					<stop  offset="0.6802" style="stop-color:#7C83E5"/>
					<stop  offset="1" style="stop-color:#5761D7"/>
				</linearGradient>
				<path class="st3" d="M540.1,344.6v-4.4l-1.2-0.7c-0.3,2.1-2.8,3.5-4.9,3.8l-14,8.2l-6.1,2.2l-19.5-10.1l0.5-0.3
					c-1.7-0.8-2.6-2.6-3.5-4.2l-1.3,0.8l-0.8,0.2v4.5l0,0c0,0.9,0.6,1.7,1.7,2.4l19.6,11.3c2.3,1.3,6,1.3,8.3,0l19.6-11.3
					c1.1-0.7,1.7-1.5,1.7-2.4C540.1,344.7,540.1,344.7,540.1,344.6L540.1,344.6z"/>
				<path class="st4" d="M534,343.3l-14,8.2l-5.3,1.9v6c1.5,0,3-0.3,4.2-1l19.6-11.3c1.1-0.7,1.7-1.5,1.7-2.4c0,0,0-0.1,0-0.1l0,0
					v-4.4l-1.1-0.6h-0.1C538.5,341.6,536,343,534,343.3z"/>
				<g>
					<linearGradient id="SVGID_3_" gradientUnits="userSpaceOnUse" x1="489.1951" y1="340.1797" x2="540.0942" y2="340.1797">
						<stop  offset="0" style="stop-color:#E9E9FD"/>
						<stop  offset="0.3601" style="stop-color:#D3D2F9"/>
						<stop  offset="0.7062" style="stop-color:#C5C4F7"/>
						<stop  offset="1" style="stop-color:#C0BFF6"/>
					</linearGradient>
					<path class="st5" d="M510.5,353.9l-19.6-11.3c-2.3-1.3-2.3-3.5,0-4.8l19.6-11.3c2.3-1.3,6-1.3,8.3,0l19.6,11.3
						c2.3,1.3,2.3,3.5,0,4.8l-19.6,11.3C516.5,355.2,512.8,355.2,510.5,353.9z"/>
				</g>
				<g class="st2">
					<path class="st6" d="M510.5,353.9l-19.6-11.3c-2.3-1.3-2.3-3.5,0-4.8l19.6-11.3c2.3-1.3,6-1.3,8.3,0l19.6,11.3
						c2.3,1.3,2.3,3.5,0,4.8l-19.6,11.3C516.5,355.2,512.8,355.2,510.5,353.9z"/>
				</g>
			</g>
			<g>
				<g>
					<path class="st7" d="M514.6,339.6c-1.3,0-2.7-0.3-3.7-0.9l-19.6-11.3c-1-0.6-1.6-1.4-1.6-2.2c0-0.8,0.6-1.6,1.6-2.2l19.6-11.3
						c2-1.2,5.3-1.2,7.4,0l19.6,11.3c1,0.6,1.6,1.4,1.6,2.2c0,0.9-0.6,1.6-1.6,2.2l-19.6,11.3C517.3,339.3,516,339.6,514.6,339.6z
						 M511.1,338.4c1.9,1.1,5.1,1.1,7,0l19.6-11.3c0.9-0.5,1.4-1.2,1.4-1.9c0-0.7-0.5-1.4-1.4-1.9L518.2,312c-1.9-1.1-5.1-1.1-7,0
						l-19.6,11.3c-0.9,0.5-1.4,1.2-1.4,1.9c0,0.7,0.5,1.4,1.4,1.9L511.1,338.4z"/>
					<g>
						<path class="st8" d="M540.1,320.8v-6.7l-1.2-0.7c-0.3,2.1-2.8,3.5-4.9,3.8l-14,8.2l-6.1,2.2l-19.5-10.1l0.5-0.3
							c-1.7-0.8-2.6-2.6-3.5-4.2l-1.3,0.8l-0.8,0.2v6.8v0c0,0.9,0.6,1.7,1.7,2.4l19.6,11.3c2.3,1.3,6,1.3,8.3,0l19.6-11.3
							c1.1-0.7,1.7-1.5,1.7-2.4C540.1,320.9,540.1,320.9,540.1,320.8L540.1,320.8z"/>
						<g>
							<g>
								<linearGradient id="SVGID_4_" gradientUnits="userSpaceOnUse" x1="494.2589" y1="301.6415" x2="534.6429" y2="324.9572">
									<stop  offset="0" style="stop-color:#BCBEFF"/>
									<stop  offset="0.2271" style="stop-color:#AAADF8"/>
									<stop  offset="0.6802" style="stop-color:#7C83E5"/>
									<stop  offset="1" style="stop-color:#5761D7"/>
								</linearGradient>
								<path class="st9" d="M540.1,314.9v-4.4l-1.2-0.7c-0.3,2.1-2.8,3.5-4.9,3.8l-14,8.2l-6.1,2.2l-19.5-10.1l0.5-0.3
									c-1.7-0.8-2.6-2.6-3.5-4.2l-1.3,0.8l-0.8,0.2v4.5v0c0,0.9,0.6,1.7,1.7,2.4l19.6,11.3c2.3,1.3,6,1.3,8.3,0l19.6-11.3
									c1.1-0.7,1.7-1.5,1.7-2.4C540.1,315,540.1,314.9,540.1,314.9L540.1,314.9z"/>
								<path class="st4" d="M534,313.5l-14,8.2l-5.3,1.9v6c1.5,0,3-0.3,4.2-1l19.6-11.3c1.1-0.7,1.7-1.5,1.7-2.4c0,0,0-0.1,0-0.1
									l0,0v-4.4l-1.1-0.6h-0.1C538.5,311.9,536,313.2,534,313.5z"/>
								<g>
									<linearGradient id="SVGID_5_" gradientUnits="userSpaceOnUse" x1="489.1951" y1="310.4547" x2="540.0942" y2="310.4547">
										<stop  offset="0" style="stop-color:#E9E9FD"/>
										<stop  offset="0.3601" style="stop-color:#D3D2F9"/>
										<stop  offset="0.7062" style="stop-color:#C5C4F7"/>
										<stop  offset="1" style="stop-color:#C0BFF6"/>
									</linearGradient>
									<path class="st10" d="M510.5,324.2l-19.6-11.3c-2.3-1.3-2.3-3.5,0-4.8l19.6-11.3c2.3-1.3,6-1.3,8.3,0l19.6,11.3
										c2.3,1.3,2.3,3.5,0,4.8l-19.6,11.3C516.5,325.5,512.8,325.5,510.5,324.2z"/>
								</g>
								<g>
									<path class="st11" d="M538.4,312.9l-19.6,11.3c-2.3,1.3-6,1.3-8.3,0l-19.6-11.3c-1-0.6-1.6-1.3-1.7-2.1
										c-0.1,1,0.4,1.9,1.7,2.7l19.6,11.3c2.3,1.3,6,1.3,8.3,0l19.6-11.3c1.3-0.7,1.8-1.7,1.7-2.7
										C540,311.5,539.4,312.3,538.4,312.9z"/>
								</g>
							</g>
						</g>
					</g>
				</g>
			</g>
		</g>
		<g>
			<g class="st2">
				<linearGradient id="SVGID_6_" gradientUnits="userSpaceOnUse" x1="279.6141" y1="325.4818" x2="319.9982" y2="348.7976">
					<stop  offset="0" style="stop-color:#BCBEFF"/>
					<stop  offset="0.2271" style="stop-color:#AAADF8"/>
					<stop  offset="0.6802" style="stop-color:#7C83E5"/>
					<stop  offset="1" style="stop-color:#5761D7"/>
				</linearGradient>
				<path class="st12" d="M325.4,338.7v-4.4l-1.2-0.7c-0.3,2.1-2.8,3.5-4.9,3.8l-14,8.2l-6.1,2.2l-19.5-10.1l0.5-0.3
					c-1.7-0.8-2.6-2.6-3.5-4.2l-1.3,0.8l-0.8,0.2v4.5l0,0c0,0.9,0.6,1.7,1.7,2.4l19.6,11.3c2.3,1.3,6,1.3,8.3,0l19.6-11.3
					c1.1-0.7,1.7-1.5,1.7-2.4C325.4,338.8,325.4,338.8,325.4,338.7L325.4,338.7z"/>
				<path class="st4" d="M319.4,337.4l-14,8.2l-5.3,1.9v6c1.5,0,3-0.3,4.2-1l19.6-11.3c1.1-0.7,1.7-1.5,1.7-2.4c0,0,0-0.1,0-0.1l0,0
					v-4.4l-1.1-0.6h-0.1C323.8,335.7,321.4,337.1,319.4,337.4z"/>
				<g>
					<linearGradient id="SVGID_7_" gradientUnits="userSpaceOnUse" x1="274.5504" y1="334.2951" x2="325.4496" y2="334.2951">
						<stop  offset="0" style="stop-color:#E9E9FD"/>
						<stop  offset="0.3601" style="stop-color:#D3D2F9"/>
						<stop  offset="0.7062" style="stop-color:#C5C4F7"/>
						<stop  offset="1" style="stop-color:#C0BFF6"/>
					</linearGradient>
					<path class="st13" d="M295.8,348l-19.6-11.3c-2.3-1.3-2.3-3.5,0-4.8l19.6-11.3c2.3-1.3,6-1.3,8.3,0l19.6,11.3
						c2.3,1.3,2.3,3.5,0,4.8L304.2,348C301.9,349.3,298.1,349.3,295.8,348z"/>
				</g>
				<g class="st2">
					<path class="st6" d="M295.8,348l-19.6-11.3c-2.3-1.3-2.3-3.5,0-4.8l19.6-11.3c2.3-1.3,6-1.3,8.3,0l19.6,11.3
						c2.3,1.3,2.3,3.5,0,4.8L304.2,348C301.9,349.3,298.1,349.3,295.8,348z"/>
				</g>
			</g>
			<g>
				<g>
					<path class="st7" d="M300,331.6c-1.3,0-2.7-0.3-3.7-0.9l-19.6-11.3c-1-0.6-1.6-1.4-1.6-2.2c0-0.8,0.6-1.6,1.6-2.2l19.6-11.3
						c2-1.2,5.3-1.2,7.4,0l19.6,11.3c1,0.6,1.6,1.4,1.6,2.2c0,0.9-0.6,1.6-1.6,2.2l-19.6,11.3C302.7,331.3,301.3,331.6,300,331.6z
						 M300,303.1c-1.3,0-2.5,0.3-3.5,0.8l-19.6,11.3c-0.9,0.5-1.4,1.2-1.4,1.9c0,0.7,0.5,1.4,1.4,1.9l19.6,11.3c1.9,1.1,5.1,1.1,7,0
						l19.6-11.3c0.9-0.5,1.4-1.2,1.4-1.9c0-0.7-0.5-1.4-1.4-1.9l-19.6-11.3C302.5,303.4,301.3,303.1,300,303.1z"/>
					<g>
						<path class="st8" d="M325.4,312.8l0-6.7l-1.2-0.7c-0.3,2.1-2.8,3.5-4.9,3.8l-14,8.2l-6.1,2.2l-19.5-10.1l0.5-0.3
							c-1.7-0.8-2.6-2.6-3.5-4.2l-1.3,0.8l-0.8,0.2v6.8l0,0c0,0.9,0.6,1.7,1.7,2.4l19.6,11.3c2.3,1.3,6,1.3,8.3,0l19.6-11.3
							c1.1-0.7,1.7-1.5,1.7-2.4C325.4,312.9,325.4,312.8,325.4,312.8L325.4,312.8z"/>
						<g>
							<g>
								<linearGradient id="SVGID_8_" gradientUnits="userSpaceOnUse" x1="279.6141" y1="293.5996" x2="319.9982" y2="316.9154">
									<stop  offset="0" style="stop-color:#BCBEFF"/>
									<stop  offset="0.2271" style="stop-color:#AAADF8"/>
									<stop  offset="0.6802" style="stop-color:#7C83E5"/>
									<stop  offset="1" style="stop-color:#5761D7"/>
								</linearGradient>
								<path class="st14" d="M325.4,306.8l0-4.4l-1.2-0.7c-0.3,2.1-2.8,3.5-4.9,3.8l-14,8.2l-6.1,2.2l-19.5-10.1l0.5-0.3
									c-1.7-0.8-2.6-2.6-3.5-4.2l-1.3,0.8l-0.8,0.2v4.5l0,0c0,0.9,0.6,1.7,1.7,2.4l19.6,11.3c2.3,1.3,6,1.3,8.3,0l19.6-11.3
									c1.1-0.7,1.7-1.5,1.7-2.4C325.4,306.9,325.4,306.9,325.4,306.8L325.4,306.8z"/>
								<path class="st4" d="M319.4,305.5l-14,8.2l-5.3,1.9v6c1.5,0,3-0.3,4.2-1l19.6-11.3c1.1-0.7,1.7-1.5,1.7-2.4c0,0,0-0.1,0-0.1
									l0,0l0-4.4l-1.1-0.6h-0.1C323.8,303.8,321.4,305.2,319.4,305.5z"/>
								<g>
									<linearGradient id="SVGID_9_" gradientUnits="userSpaceOnUse" x1="274.5504" y1="302.4129" x2="325.4496" y2="302.4129">
										<stop  offset="0" style="stop-color:#E9E9FD"/>
										<stop  offset="0.3601" style="stop-color:#D3D2F9"/>
										<stop  offset="0.7062" style="stop-color:#C5C4F7"/>
										<stop  offset="1" style="stop-color:#C0BFF6"/>
									</linearGradient>
									<path class="st15" d="M295.8,316.1l-19.6-11.3c-2.3-1.3-2.3-3.5,0-4.8l19.6-11.3c2.3-1.3,6-1.3,8.3,0l19.6,11.3
										c2.3,1.3,2.3,3.5,0,4.8l-19.6,11.3C301.9,317.4,298.1,317.4,295.8,316.1z"/>
								</g>
								<g>
									<path class="st16" d="M300,314.1c-1.2,0-2.4-0.3-3.3-0.8l-15.3-8.8c-0.9-0.5-1.4-1.3-1.4-2c0-0.8,0.5-1.5,1.4-2l15.3-8.8
										c1.8-1.1,4.8-1.1,6.7,0l15.3,8.8c0.9,0.5,1.4,1.3,1.4,2c0,0.8-0.5,1.5-1.4,2l-15.3,8.8C302.4,313.8,301.2,314.1,300,314.1z
										 M296.8,313c1.7,1,4.6,1,6.3,0l15.3-8.8c0.8-0.5,1.3-1.1,1.3-1.7c0-0.6-0.4-1.3-1.3-1.7l-15.3-8.8c-1.7-1-4.6-1-6.3,0
										l-15.3,8.8c-0.8,0.5-1.3,1.1-1.3,1.7c0,0.6,0.4,1.3,1.3,1.7L296.8,313z"/>
								</g>
								<g>
									<path class="st11" d="M323.7,304.8l-19.6,11.3c-2.3,1.3-6,1.3-8.3,0l-19.6-11.3c-1-0.6-1.6-1.3-1.7-2.1
										c-0.1,1,0.4,1.9,1.7,2.7l19.6,11.3c2.3,1.3,6,1.3,8.3,0l19.6-11.3c1.3-0.7,1.8-1.7,1.7-2.7
										C325.3,303.5,324.8,304.2,323.7,304.8z"/>
								</g>
							</g>
						</g>
					</g>
				</g>
			</g>
		</g>
		<g class="st2">
			<linearGradient id="SVGID_10_" gradientUnits="userSpaceOnUse" x1="507.7651" y1="199.266" x2="548.1492" y2="222.5818">
				<stop  offset="0" style="stop-color:#BCBEFF"/>
				<stop  offset="0.2271" style="stop-color:#AAADF8"/>
				<stop  offset="0.6802" style="stop-color:#7C83E5"/>
				<stop  offset="1" style="stop-color:#5761D7"/>
			</linearGradient>
			<path class="st17" d="M553.6,212.5v-4.4l-1.2-0.7c-0.3,2.1-2.8,3.5-4.9,3.8l-14,8.2l-6.1,2.2l-19.5-10.1l0.5-0.3
				c-1.7-0.8-2.6-2.6-3.5-4.2l-1.3,0.8l-0.8,0.2v4.5h0c0,0.9,0.6,1.7,1.7,2.4l19.6,11.3c2.3,1.3,6,1.3,8.3,0l19.6-11.3
				c1.1-0.7,1.7-1.5,1.7-2.4C553.6,212.6,553.6,212.6,553.6,212.5L553.6,212.5z"/>
			<path class="st4" d="M547.5,211.2l-14,8.2l-5.3,1.9v6c1.5,0,3-0.3,4.2-1l19.6-11.3c1.1-0.7,1.7-1.5,1.7-2.4c0,0,0-0.1,0-0.1l0,0
				v-4.4l-1.1-0.6h-0.1C552,209.5,549.5,210.9,547.5,211.2z"/>
			<g>
				<linearGradient id="SVGID_11_" gradientUnits="userSpaceOnUse" x1="502.7013" y1="208.0793" x2="553.6005" y2="208.0793">
					<stop  offset="0" style="stop-color:#E9E9FD"/>
					<stop  offset="0.3601" style="stop-color:#D3D2F9"/>
					<stop  offset="0.7062" style="stop-color:#C5C4F7"/>
					<stop  offset="1" style="stop-color:#C0BFF6"/>
				</linearGradient>
				<path class="st18" d="M524,221.8l-19.6-11.3c-2.3-1.3-2.3-3.5,0-4.8l19.6-11.3c2.3-1.3,6-1.3,8.3,0l19.6,11.3
					c2.3,1.3,2.3,3.5,0,4.8l-19.6,11.3C530,223.1,526.3,223.1,524,221.8z"/>
			</g>
			<g class="st2">
				<path class="st6" d="M524,221.8l-19.6-11.3c-2.3-1.3-2.3-3.5,0-4.8l19.6-11.3c2.3-1.3,6-1.3,8.3,0l19.6,11.3
					c2.3,1.3,2.3,3.5,0,4.8l-19.6,11.3C530,223.1,526.3,223.1,524,221.8z"/>
			</g>
		</g>
		<g>
			<g>
				<path class="st7" d="M528.2,207.5c-1.3,0-2.7-0.3-3.7-0.9l-19.6-11.3c-1-0.6-1.6-1.4-1.6-2.2c0-0.9,0.6-1.6,1.6-2.2l19.6-11.3
					c2-1.2,5.3-1.2,7.4,0l19.6,11.3c1,0.6,1.6,1.4,1.6,2.2c0,0.9-0.6,1.6-1.6,2.2l-19.6,11.3C530.8,207.2,529.5,207.5,528.2,207.5z
					 M524.6,206.4c1.9,1.1,5.1,1.1,7,0l19.6-11.3c0.9-0.5,1.4-1.2,1.4-1.9c0-0.7-0.5-1.4-1.4-1.9l-19.6-11.3c-1.9-1.1-5.1-1.1-7,0
					l-19.6,11.3c-0.9,0.5-1.4,1.2-1.4,1.9c0,0.7,0.5,1.4,1.4,1.9L524.6,206.4z"/>
				<g>
					<path class="st8" d="M553.6,188.8v-6.7l-1.2-0.7c-0.3,2.1-2.8,3.5-4.9,3.8l-14,8.2l-6.1,2.2l-19.5-10.1l0.5-0.3
						c-1.7-0.8-2.6-2.6-3.5-4.2l-1.3,0.8l-0.8,0.2v6.8h0c0,0.9,0.6,1.7,1.7,2.4l19.6,11.3c2.3,1.3,6,1.3,8.3,0l19.6-11.3
						c1.1-0.7,1.7-1.5,1.7-2.4C553.6,188.9,553.6,188.8,553.6,188.8L553.6,188.8z"/>
					<g>
						<g>
							<linearGradient id="SVGID_12_" gradientUnits="userSpaceOnUse" x1="507.7651" y1="169.5789" x2="548.1492" y2="192.8947">
								<stop  offset="0" style="stop-color:#BCBEFF"/>
								<stop  offset="0.2271" style="stop-color:#AAADF8"/>
								<stop  offset="0.6802" style="stop-color:#7C83E5"/>
								<stop  offset="1" style="stop-color:#5761D7"/>
							</linearGradient>
							<path class="st19" d="M553.6,182.8v-4.4l-1.2-0.7c-0.3,2.1-2.8,3.5-4.9,3.8l-14,8.2l-6.1,2.2l-19.5-10.1l0.5-0.3
								c-1.7-0.8-2.6-2.6-3.5-4.2l-1.3,0.8l-0.8,0.2v4.5h0c0,0.9,0.6,1.7,1.7,2.4l19.6,11.3c2.3,1.3,6,1.3,8.3,0l19.6-11.3
								c1.1-0.7,1.7-1.5,1.7-2.4C553.6,182.9,553.6,182.9,553.6,182.8L553.6,182.8z"/>
							<path class="st4" d="M547.5,181.5l-14,8.2l-5.3,1.9v6c1.5,0,3-0.3,4.2-1l19.6-11.3c1.1-0.7,1.7-1.5,1.7-2.4c0,0,0-0.1,0-0.1
								l0,0v-4.4l-1.1-0.6h-0.1C552,179.8,549.5,181.2,547.5,181.5z"/>
							<g>
								<linearGradient id="SVGID_13_" gradientUnits="userSpaceOnUse" x1="502.7013" y1="178.3922" x2="553.6005" y2="178.3922">
									<stop  offset="0" style="stop-color:#E9E9FD"/>
									<stop  offset="0.3601" style="stop-color:#D3D2F9"/>
									<stop  offset="0.7062" style="stop-color:#C5C4F7"/>
									<stop  offset="1" style="stop-color:#C0BFF6"/>
								</linearGradient>
								<path class="st20" d="M524,192.1l-19.6-11.3c-2.3-1.3-2.3-3.5,0-4.8l19.6-11.3c2.3-1.3,6-1.3,8.3,0l19.6,11.3
									c2.3,1.3,2.3,3.5,0,4.8l-19.6,11.3C530,193.4,526.3,193.4,524,192.1z"/>
							</g>
							<g>
								<path class="st16" d="M528.2,190c-1.2,0-2.4-0.3-3.3-0.8l-15.3-8.8c-0.9-0.5-1.4-1.3-1.4-2c0-0.8,0.5-1.5,1.4-2l15.3-8.8
									c1.8-1.1,4.8-1.1,6.7,0l15.3,8.8c0.9,0.5,1.4,1.3,1.4,2c0,0.8-0.5,1.5-1.4,2l-15.3,8.8C530.6,189.8,529.4,190,528.2,190z
									 M528.2,167.1c-1.1,0-2.3,0.3-3.2,0.8l-15.3,8.8c-0.8,0.5-1.3,1.1-1.3,1.7c0,0.6,0.4,1.3,1.3,1.7l15.3,8.8
									c1.7,1,4.6,1,6.3,0l15.3-8.8c0.8-0.5,1.3-1.1,1.3-1.7c0-0.6-0.4-1.3-1.3-1.7l-15.3-8.8C530.4,167.3,529.3,167.1,528.2,167.1
									z"/>
							</g>
							<g>
								<path class="st11" d="M551.9,180.8l-19.6,11.3c-2.3,1.3-6,1.3-8.3,0l-19.6-11.3c-1-0.6-1.6-1.3-1.7-2.1
									c-0.1,1,0.4,1.9,1.7,2.7l19.6,11.3c2.3,1.3,6,1.3,8.3,0l19.6-11.3c1.3-0.7,1.8-1.7,1.7-2.7
									C553.5,179.4,552.9,180.2,551.9,180.8z"/>
							</g>
						</g>
					</g>
				</g>
			</g>
		</g>
		<path class="st7" d="M421.6,321.9c-0.9,0-1.9-0.2-2.6-0.7L299,252c-0.8-0.4-1.2-1-1.2-1.6c0-0.5,0.3-1,0.9-1.3l71.6-41.3
			c1.2-0.7,3.3-0.6,4.6,0.2l120,69.3c0.8,0.4,1.2,1,1.2,1.6c0,0.5-0.3,1-0.9,1.3l-71.6,41.3C423.1,321.8,422.4,321.9,421.6,321.9z
			 M372.3,207.7c-0.7,0-1.3,0.1-1.8,0.4l-71.6,41.3c-0.4,0.2-0.7,0.6-0.7,0.9c0,0.4,0.4,0.9,1,1.3l120,69.3c1.3,0.7,3.2,0.8,4.2,0.2
			l71.6-41.3c0.4-0.2,0.7-0.6,0.7-0.9c0-0.4-0.4-0.9-1-1.3l-120-69.3C374,207.9,373.2,207.7,372.3,207.7z"/>
		<g>
			<linearGradient id="SVGID_14_" gradientUnits="userSpaceOnUse" x1="492.2076" y1="257.2236" x2="294.3097" y2="257.2236">
				<stop  offset="0" style="stop-color:#5761D7"/>
				<stop  offset="0.1779" style="stop-color:#5C66D9"/>
				<stop  offset="0.3876" style="stop-color:#6A73DF"/>
				<stop  offset="0.6134" style="stop-color:#8289E8"/>
				<stop  offset="0.849" style="stop-color:#A3A7F5"/>
				<stop  offset="1" style="stop-color:#BCBEFF"/>
			</linearGradient>
			<path class="st21" d="M495.9,266.8l-6.6-1l-114.5-66.1c-1.3-0.8-3.3-0.8-4.4-0.2L302.2,239l-4.2-0.6v5.6l0,0c0,0.5,0.4,1,1.1,1.4
				l120,69.3c1.3,0.8,3.3,0.8,4.4,0.2l71.6-41.3c0.5-0.3,0.8-0.7,0.8-1.1l0,0V266.8z"/>
			
				<linearGradient id="SVGID_15_" gradientUnits="userSpaceOnUse" x1="279.7154" y1="252.6168" x2="477.6132" y2="252.6168" gradientTransform="matrix(-1 0 0 1 709.138 0)">
				<stop  offset="0" style="stop-color:#C0BFF6"/>
				<stop  offset="0.2938" style="stop-color:#C5C4F7"/>
				<stop  offset="0.6399" style="stop-color:#D3D2F9"/>
				<stop  offset="1" style="stop-color:#E9E9FD"/>
			</linearGradient>
			<path class="st22" d="M299.1,239.8l120,69.3c1.3,0.8,3.3,0.8,4.4,0.2l71.6-41.3c1.1-0.7,1-1.8-0.3-2.6l-120-69.3
				c-1.3-0.8-3.3-0.8-4.4-0.2l-71.6,41.3C297.7,237.9,297.8,239.1,299.1,239.8z"/>
			<path class="st23" d="M309.5,241.2l107.3,61.9c1.2,0.7,2.9,0.8,4,0.2l64-37c1-0.6,0.9-1.6-0.3-2.3l-107.3-61.9
				c-1.2-0.7-2.9-0.8-4-0.2l-64,37C308.2,239.5,308.3,240.5,309.5,241.2z"/>
			<path class="st11" d="M495.2,267.4l-71.6,41.3c-1.1,0.7-3.1,0.6-4.4-0.2l-120-69.3c-0.6-0.3-0.9-0.7-1-1.1
				c-0.2,0.6,0.2,1.3,1,1.8l120,69.3c1.3,0.8,3.3,0.8,4.4,0.2l71.6-41.3c0.6-0.4,0.9-0.9,0.7-1.4
				C495.8,266.8,495.5,267.1,495.2,267.4z"/>
		</g>
		<g>
			<g>
				<g>
					<g>
						<g>
							
								<linearGradient id="SVGID_16_" gradientUnits="userSpaceOnUse" x1="194.4934" y1="165.8067" x2="334.5405" y2="165.8067" gradientTransform="matrix(-1 0 0 1 709.138 0)">
								<stop  offset="0" style="stop-color:#C0BFF6"/>
								<stop  offset="0.2938" style="stop-color:#C5C4F7"/>
								<stop  offset="0.6399" style="stop-color:#D3D2F9"/>
								<stop  offset="1" style="stop-color:#E9E9FD"/>
							</linearGradient>
							<path class="st24" d="M374.6,174.5l15.2-90l-1.2-0.5l1.8-1.1l0,0c0.4-0.2,0.9-0.2,1.4,0.1l121.2,70c1,0.6,1.7,2,1.6,3.1
								l-15.3,90.7c-0.1,0.5-0.3,0.8-0.6,0.9l0,0l-1.8,1l-0.3-1.7l0.1,0l-120.5-69.6C375.2,177,374.4,175.5,374.6,174.5z"/>
							
								<linearGradient id="SVGID_17_" gradientUnits="userSpaceOnUse" x1="194.4943" y1="201.7224" x2="218.5417" y2="201.7224" gradientTransform="matrix(-1 0 0 1 709.138 0)">
								<stop  offset="0" style="stop-color:#5761D7"/>
								<stop  offset="0.1779" style="stop-color:#5C66D9"/>
								<stop  offset="0.3876" style="stop-color:#6A73DF"/>
								<stop  offset="0.6134" style="stop-color:#8289E8"/>
								<stop  offset="0.849" style="stop-color:#A3A7F5"/>
								<stop  offset="1" style="stop-color:#BCBEFF"/>
							</linearGradient>
							<path class="st25" d="M512.4,155.5l2-0.9c0.2,0.5,0.3,1,0.3,1.5l-15.3,90.7c-0.1,0.5-0.3,0.8-0.6,0.9l0,0l-1.8,1l-0.3-1.7
								l0.1,0l-6.1-3.5L512.4,155.5z"/>
							<path class="st26" d="M374.3,178.7l121.2,70c0.9,0.5,1.7,0.2,1.9-0.7l15.3-90.7c0.2-1-0.6-2.5-1.6-3.1l-121.2-70
								c-0.9-0.5-1.7-0.2-1.9,0.7l-15.3,90.7C372.5,176.6,373.3,178.1,374.3,178.7z"/>
							<g class="st27">
								<polygon class="st28" points="389.5,85.8 511.3,156.1 495.9,247.1 374.2,176.8 								"/>
							</g>
						</g>
						<g>
							
								<linearGradient id="SVGID_18_" gradientUnits="userSpaceOnUse" x1="213.2564" y1="240.9091" x2="411.0489" y2="240.9091" gradientTransform="matrix(-1 0 0 1 709.138 0)">
								<stop  offset="0" style="stop-color:#5761D7"/>
								<stop  offset="0.1779" style="stop-color:#5C66D9"/>
								<stop  offset="0.3876" style="stop-color:#6A73DF"/>
								<stop  offset="0.6134" style="stop-color:#8289E8"/>
								<stop  offset="0.849" style="stop-color:#A3A7F5"/>
								<stop  offset="1" style="stop-color:#BCBEFF"/>
							</linearGradient>
							<path class="st29" d="M298.1,221.6l6.6,3.5l66.3-38.3c1.1-0.6,3-0.6,4.3,0.2L489.8,253c1.1-0.6,6.1-3,6.1-3l-2.4,3.9
								c0,0,0,0,0,0c-0.1,0.3-0.3,0.5-0.7,0.8L422.9,295c-1.1,0.6-3,0.6-4.3-0.2l-117.1-67.6c-0.5-0.3-0.8-0.7-1-1l0,0L298.1,221.6z
								"/>
							
								<linearGradient id="SVGID_19_" gradientUnits="userSpaceOnUse" x1="279.7154" y1="235.5008" x2="477.6132" y2="235.5008" gradientTransform="matrix(-1 0 0 1 709.138 0)">
								<stop  offset="0" style="stop-color:#C0BFF6"/>
								<stop  offset="0.2938" style="stop-color:#C5C4F7"/>
								<stop  offset="0.6399" style="stop-color:#D3D2F9"/>
								<stop  offset="1" style="stop-color:#E9E9FD"/>
							</linearGradient>
							<path class="st30" d="M299.1,222.7l120,69.3c1.3,0.8,3.3,0.8,4.4,0.2l71.6-41.3c1.1-0.7,1-1.8-0.3-2.6l-120-69.3
								c-1.3-0.8-3.3-0.8-4.4-0.2l-71.6,41.3C297.7,220.8,297.8,222,299.1,222.7z"/>
							<path class="st26" d="M299.1,222.7l120,69.3c1.3,0.8,3.3,0.8,4.4,0.2l71.6-41.3c1.1-0.7,1-1.8-0.3-2.6l-120-69.3
								c-1.3-0.8-3.3-0.8-4.4-0.2l-71.6,41.3C297.7,220.8,297.8,222,299.1,222.7z"/>
							<path class="st31" d="M299.1,222.7l120,69.3c1.3,0.8,3.3,0.8,4.4,0.2l71.6-41.3c1.1-0.7,1-1.8-0.3-2.6l-120-69.3
								c-1.3-0.8-3.3-0.8-4.4-0.2l-71.6,41.3C297.7,220.8,297.8,222,299.1,222.7z"/>
							<g class="st2">
								<defs>
									<path id="SVGID_20_" class="st2" d="M299.1,220.2l120,69.3c1.3,0.8,3.3,0.8,4.4,0.2l71.6-41.3c1.1-0.7,1-1.8-0.3-2.6
										l-120-69.3c-1.3-0.8-3.3-0.8-4.4-0.2l-71.6,41.3C297.7,218.3,297.8,219.4,299.1,220.2z"/>
								</defs>
								<radialGradient id="SVGID_21_" cx="399.4482" cy="227.5079" r="125.2844" gradientUnits="userSpaceOnUse">
									<stop  offset="0" style="stop-color:#42E8E0"/>
									<stop  offset="0.1055" style="stop-color:#37B6BF"/>
									<stop  offset="0.2197" style="stop-color:#2C87A1"/>
									<stop  offset="0.338" style="stop-color:#235F87"/>
									<stop  offset="0.4587" style="stop-color:#1C3F72"/>
									<stop  offset="0.5824" style="stop-color:#162561"/>
									<stop  offset="0.7105" style="stop-color:#121355"/>
									<stop  offset="0.8458" style="stop-color:#10084E"/>
									<stop  offset="1" style="stop-color:#0F054C"/>
								</radialGradient>
								<use xlink:href="#SVGID_20_"  style="overflow:visible;opacity:0.5;fill:url(#SVGID_21_);"/>
								<clipPath id="SVGID_22_">
									<use xlink:href="#SVGID_20_"  style="overflow:visible;opacity:0.5;"/>
								</clipPath>
								<g class="st32">
									<g>
										<g>
											<g>
												<g>
													<g>
														<g>
															
																<radialGradient id="SVGID_23_" cx="-2463.9448" cy="5428.5464" r="78.2872" gradientTransform="matrix(-0.7781 0 0 -1.0592 -1538.7906 6053.4912)" gradientUnits="userSpaceOnUse">
																<stop  offset="0" style="stop-color:#C0BFF6"/>
																<stop  offset="1" style="stop-color:#393091"/>
															</radialGradient>
															<path class="st33" d="M363.9,296.3c0-26.6,15.9-48.3,35.4-48.3c19.6,0,35.4,21.6,35.4,48.3
																c0,26.6-15.9,34.6-35.4,34.6C379.7,331,363.9,323,363.9,296.3z"/>
														</g>
													</g>
												</g>
											</g>
										</g>
									</g>
								</g>
							</g>
							<linearGradient id="SVGID_24_" gradientUnits="userSpaceOnUse" x1="297.7422" y1="232.9503" x2="496.2061" y2="232.9503">
								<stop  offset="0" style="stop-color:#42E8E0"/>
								<stop  offset="0.1055" style="stop-color:#37B6BF"/>
								<stop  offset="0.2197" style="stop-color:#2C87A1"/>
								<stop  offset="0.338" style="stop-color:#235F87"/>
								<stop  offset="0.4587" style="stop-color:#1C3F72"/>
								<stop  offset="0.5824" style="stop-color:#162561"/>
								<stop  offset="0.7105" style="stop-color:#121355"/>
								<stop  offset="0.8458" style="stop-color:#10084E"/>
								<stop  offset="1" style="stop-color:#0F054C"/>
							</linearGradient>
							<path class="st34" d="M421.6,290.4c-0.9,0-1.9-0.2-2.6-0.7l-120-69.3c-0.8-0.5-1.2-1.1-1.2-1.7c0-0.5,0.3-1,0.9-1.4
								l71.6-41.3c1.2-0.7,3.3-0.6,4.7,0.2l120,69.3c0.8,0.5,1.2,1.1,1.2,1.7c0,0.5-0.3,1-0.9,1.4l-71.6,41.3
								C423.1,290.2,422.4,290.4,421.6,290.4z M299.3,219.9l120,69.3c1.2,0.7,3.1,0.8,4.2,0.2L495,248c0.3-0.2,0.6-0.5,0.6-0.9
								s-0.3-0.9-0.9-1.2l-120-69.3c-1.2-0.7-3.1-0.8-4.2-0.2l-71.6,41.3c-0.3,0.2-0.6,0.4-0.6,0.9
								C298.3,219.1,298.7,219.6,299.3,219.9L299.3,219.9z"/>
							<path class="st11" d="M299.1,222.2l120,69.3c1.3,0.8,3.3,0.8,4.4,0.2l71.6-41.3c0.4-0.2,0.6-0.5,0.7-0.8
								c0.1,0.5-0.1,1-0.7,1.4l-71.6,41.3c-1.1,0.7-3.1,0.6-4.4-0.2l-120-69.3c-0.9-0.5-1.2-1.1-1-1.7
								C298.2,221.4,298.5,221.8,299.1,222.2z"/>
						</g>
					</g>
					
						<image style="overflow:visible;" width="826" height="800" xlink:href="9B78157.png"  transform="matrix(0.24 0 0 0.24 374.0618 60.1494)">
					</image>
				</g>
			</g>
			<g>
				<path class="st7" d="M490.7,160.5c-0.3,0-0.6-0.1-0.9-0.3c-0.9-0.5-1.5-1.7-1.2-2.6c0.1-0.4,0.4-0.8,0.7-0.9
					c0.4-0.2,0.9-0.1,1.4,0.1c0.9,0.5,1.5,1.7,1.2,2.6c-0.1,0.4-0.4,0.8-0.7,0.9C491.1,160.5,490.9,160.5,490.7,160.5z M489.9,157
					c-0.1,0-0.3,0-0.4,0.1c-0.3,0.1-0.4,0.3-0.5,0.7c-0.2,0.8,0.3,1.7,1,2.2c0.4,0.2,0.7,0.3,1,0.1c0.3-0.1,0.4-0.3,0.5-0.7l0,0
					c0.2-0.8-0.3-1.7-1-2.2C490.3,157.1,490.1,157,489.9,157z"/>
				<path class="st7" d="M495.6,163.3c-0.3,0-0.6-0.1-0.9-0.3c-0.9-0.5-1.5-1.7-1.2-2.6c0.1-0.4,0.4-0.8,0.7-0.9
					c0.4-0.2,0.9-0.1,1.4,0.1c0.9,0.5,1.5,1.7,1.2,2.6l0,0c-0.1,0.4-0.4,0.8-0.7,0.9C496,163.3,495.8,163.3,495.6,163.3z
					 M494.7,159.8c-0.1,0-0.3,0-0.4,0.1c-0.3,0.1-0.4,0.3-0.5,0.7c-0.2,0.8,0.3,1.7,1,2.2c0.4,0.2,0.7,0.3,1,0.1
					c0.3-0.1,0.4-0.3,0.5-0.7c0.2-0.8-0.3-1.7-1.1-2.2C495.2,159.9,494.9,159.8,494.7,159.8z"/>
				<path class="st7" d="M501.5,165.1c-0.2,0.8-1,1.1-1.9,0.7c-0.8-0.5-1.3-1.6-1.1-2.4c0.2-0.8,1-1.1,1.9-0.7
					C501.2,163.1,501.7,164.2,501.5,165.1z"/>
			</g>
			<polygon class="st7" points="408.5,111.5 405.9,110 406.1,108.8 408.7,110.3 			"/>
			<polygon class="st7" points="412.3,113.7 409.7,112.2 409.9,111 412.5,112.5 			"/>
			<polygon class="st7" points="404.8,109.4 399.1,106.1 399.3,104.9 405,108.2 			"/>
		</g>
		<g class="st35">
			<ellipse class="st36" cx="401.7" cy="238.1" rx="43" ry="24.8"/>
			<ellipse class="st36" cx="401.7" cy="238.1" rx="35.6" ry="20.5"/>
			<ellipse class="st37" cx="401.7" cy="238.1" rx="28.1" ry="16.2"/>
		</g>
		<g>
			
				<radialGradient id="SVGID_25_" cx="-2815.3652" cy="320.7505" r="92.3314" gradientTransform="matrix(0.2896 0.2896 -0.7071 0.7071 1480.7838 720.5006)" gradientUnits="userSpaceOnUse">
				<stop  offset="0" style="stop-color:#42E8E0"/>
				<stop  offset="0.1055" style="stop-color:#37B6BF"/>
				<stop  offset="0.2197" style="stop-color:#2C87A1"/>
				<stop  offset="0.338" style="stop-color:#235F87"/>
				<stop  offset="0.4587" style="stop-color:#1C3F72"/>
				<stop  offset="0.5824" style="stop-color:#162561"/>
				<stop  offset="0.7105" style="stop-color:#121355"/>
				<stop  offset="0.8458" style="stop-color:#10084E"/>
				<stop  offset="1" style="stop-color:#0F054C"/>
			</radialGradient>
			<path class="st38" d="M461.1,154.5c-30.3,30.3-65,44.9-77.4,32.4c-12.4-12.4,2.1-47.1,32.4-77.4c30.3-30.3,65-44.9,77.4-32.4
				C506,89.5,491.5,124.1,461.1,154.5z"/>
			<g>
				<path class="st8" d="M441.3,144.1c0.8-0.8,0.9-2.1,0.1-2.9c-0.8-0.8-2.1-0.9-2.9-0.1c-0.8,0.8-0.9,2.1-0.1,2.9
					C439.2,144.8,440.5,144.8,441.3,144.1z"/>
				<path class="st7" d="M465.1,142.3c0.8-0.8,0.9-2.1,0.1-2.9c-0.8-0.8-2.1-0.9-2.9-0.1c-0.8,0.8-0.9,2.1-0.1,2.9
					C463,143,464.3,143.1,465.1,142.3z"/>
				<path class="st8" d="M459.2,110.5c0.9-0.8,0.9-2.2,0.1-3.1c-0.8-0.9-2.2-0.9-3.1-0.1c-0.9,0.8-0.9,2.2-0.1,3.1
					C456.9,111.3,458.3,111.3,459.2,110.5z"/>
				<path class="st8" d="M456.7,116.7c0.5-0.5,0.6-1.3,0.1-1.9c-0.5-0.5-1.3-0.6-1.9-0.1c-0.5,0.5-0.6,1.3-0.1,1.9
					C455.4,117.2,456.2,117.2,456.7,116.7z"/>
				<path class="st39" d="M454,113.5c0.3-0.3,0.4-0.9,0-1.2c-0.3-0.3-0.9-0.4-1.2,0s-0.4,0.9,0,1.2
					C453.1,113.8,453.7,113.8,454,113.5z"/>
				<path class="st39" d="M459.7,132.3c0.3-0.3,0.4-0.9,0-1.2s-0.9-0.4-1.2,0s-0.4,0.9,0,1.2S459.3,132.6,459.7,132.3z"/>
				<path class="st8" d="M447.7,108c0.1-0.1,0.1-0.3,0-0.4c-0.1-0.1-0.3-0.1-0.4,0c-0.1,0.1-0.1,0.3,0,0.4
					C447.4,108.1,447.6,108.1,447.7,108z"/>
				<path class="st39" d="M449.2,118.7c0.1-0.1,0.1-0.3,0-0.4c-0.1-0.1-0.3-0.1-0.4,0c-0.1,0.1-0.1,0.3,0,0.4
					C449,118.8,449.1,118.8,449.2,118.7z"/>
				<path class="st39" d="M452.6,139c0.1-0.1,0.1-0.3,0-0.4c-0.1-0.1-0.3-0.1-0.4,0c-0.1,0.1-0.1,0.3,0,0.4S452.5,139.1,452.6,139z"
					/>
				<path class="st39" d="M450.2,135.7c0.1-0.1,0.1-0.3,0-0.4c-0.1-0.1-0.3-0.1-0.4,0s-0.1,0.3,0,0.4
					C449.9,135.8,450.1,135.8,450.2,135.7z"/>
				<path class="st8" d="M441.4,120.1c1.3-1.2,1.3-3.2,0.1-4.4c-1.2-1.3-3.2-1.3-4.4-0.1c-1.3,1.2-1.3,3.2-0.1,4.4
					C438.2,121.2,440.2,121.3,441.4,120.1z"/>
				<path class="st7" d="M424.6,126.2c0.6-0.6,0.7-1.6,0.1-2.2s-1.6-0.7-2.2-0.1c-0.6,0.6-0.7,1.6-0.1,2.2
					C423,126.8,423.9,126.8,424.6,126.2z"/>
				<circle class="st8" cx="451.7" cy="125" r="1.6"/>
				<path class="st8" d="M441.4,100.4c0.6-0.6,0.7-1.6,0.1-2.2c-0.6-0.6-1.6-0.7-2.2-0.1c-0.6,0.6-0.7,1.6-0.1,2.2
					C439.8,101,440.8,101,441.4,100.4z"/>
				<path class="st8" d="M421.7,111.7c0.6-0.6,0.7-1.6,0.1-2.2c-0.6-0.6-1.6-0.7-2.2-0.1c-0.6,0.6-0.7,1.6-0.1,2.2
					C420.1,112.2,421.1,112.2,421.7,111.7z"/>
				<path class="st8" d="M475.2,116.5c0.6-0.6,0.7-1.6,0.1-2.2c-0.6-0.6-1.6-0.7-2.2-0.1c-0.6,0.6-0.7,1.6-0.1,2.2
					C473.6,117.1,474.6,117.1,475.2,116.5z"/>
				<path class="st8" d="M464,89.2c0.6-0.6,0.7-1.6,0.1-2.2c-0.6-0.6-1.6-0.7-2.2-0.1c-0.6,0.6-0.7,1.6-0.1,2.2
					C462.4,89.8,463.4,89.8,464,89.2z"/>
				<path class="st7" d="M484.5,92.1c0.3-0.3,0.3-0.8,0-1.1c-0.3-0.3-0.8-0.3-1.1,0c-0.3,0.3-0.3,0.8,0,1.1
					C483.7,92.4,484.2,92.4,484.5,92.1z"/>
				<path class="st8" d="M446,138.8c0.4-0.3,0.4-0.9,0-1.3c-0.3-0.4-0.9-0.4-1.3,0c-0.4,0.3-0.4,0.9,0,1.3
					C445,139.1,445.6,139.2,446,138.8z"/>
				<path class="st7" d="M444.2,112.9c0.4-0.3,0.4-0.9,0-1.3c-0.3-0.4-0.9-0.4-1.3,0c-0.4,0.3-0.4,0.9,0,1.3
					C443.3,113.3,443.8,113.3,444.2,112.9z"/>
				<path class="st7" d="M432.5,112.6c0.2-0.2,0.3-0.6,0-0.9c-0.2-0.2-0.6-0.3-0.9,0c-0.2,0.2-0.3,0.6,0,0.9
					C431.9,112.8,432.3,112.8,432.5,112.6z"/>
				<path class="st7" d="M430.8,112.5c0.4-0.3,0.4-0.9,0-1.3c-0.3-0.4-0.9-0.4-1.3,0c-0.4,0.3-0.4,0.9,0,1.3
					C429.8,112.9,430.4,112.9,430.8,112.5z"/>
				<path class="st7" d="M430.4,114.7c0.2-0.2,0.2-0.5,0-0.7c-0.2-0.2-0.5-0.2-0.7,0c-0.2,0.2-0.2,0.5,0,0.7
					S430.2,114.9,430.4,114.7z"/>
				<path class="st8" d="M439,129.4c0.3-0.2,0.3-0.7,0-0.9c-0.2-0.3-0.7-0.3-0.9,0c-0.3,0.2-0.3,0.7,0,0.9
					C438.4,129.6,438.8,129.6,439,129.4z"/>
				<path class="st8" d="M457.8,132c0.3-0.2,0.3-0.7,0-0.9c-0.2-0.3-0.7-0.3-0.9,0c-0.3,0.2-0.3,0.7,0,0.9
					C457.1,132.3,457.5,132.3,457.8,132z"/>
				<path class="st7" d="M443,130.4c0.6-0.6,0.7-1.6,0.1-2.2c-0.6-0.6-1.6-0.7-2.2-0.1c-0.6,0.6-0.7,1.6-0.1,2.2
					C441.4,131,442.4,131,443,130.4z"/>
			</g>
			<g>
				<g>
					<g>
						
							<radialGradient id="SVGID_26_" cx="-335.9235" cy="-130.011" r="25.8945" gradientTransform="matrix(0.9575 0.2883 -0.2883 0.9575 636.9385 411.9287)" gradientUnits="userSpaceOnUse">
							<stop  offset="0" style="stop-color:#C0BFF6"/>
							<stop  offset="1" style="stop-color:#393091"/>
						</radialGradient>
						<path class="st40" d="M355.8,197.8c-1.5,4.8-9.2,14.2-14.1,12.7c-4.8-1.5-4.8-13.2-3.4-18c1.5-4.8,6.5-7.6,11.4-6.1
							C354.5,187.9,357.3,193,355.8,197.8z"/>
					</g>
				</g>
				<g>
					<g>
						
							<linearGradient id="SVGID_27_" gradientUnits="userSpaceOnUse" x1="-348.1256" y1="-113.1788" x2="-332.8171" y2="-129.7101" gradientTransform="matrix(0.9575 0.2883 -0.2883 0.9575 636.9385 411.9287)">
							<stop  offset="0" style="stop-color:#2FD3C7"/>
							<stop  offset="8.808988e-02" style="stop-color:#31B6BD"/>
							<stop  offset="0.2288" style="stop-color:#338DB0"/>
							<stop  offset="0.3734" style="stop-color:#356BA5"/>
							<stop  offset="0.5206" style="stop-color:#37519C"/>
							<stop  offset="0.6715" style="stop-color:#383F96"/>
							<stop  offset="0.8281" style="stop-color:#393492"/>
							<stop  offset="1" style="stop-color:#393091"/>
						</linearGradient>
						<path class="st41" d="M355.8,197.8c-1.5,4.8-9.2,14.2-14.1,12.7c-4.8-1.5-4.8-13.2-3.4-18c1.5-4.8,6.5-7.6,11.4-6.1
							C354.5,187.9,357.3,193,355.8,197.8z"/>
					</g>
				</g>
				<g>
					<path class="st42" d="M346.5,186.5c2.5-0.2,5.8,1.3,7.2,3.4c1.5,2.1,0.6,3.9-1.9,4.2c-2.5,0.2-5.8-1.3-7.2-3.4
						C343.1,188.6,344,186.7,346.5,186.5z"/>
					
						<radialGradient id="SVGID_28_" cx="2539.9434" cy="3697.7734" r="16.8045" gradientTransform="matrix(-8.900000e-02 -0.996 0.996 -8.900000e-02 -3109.0232 3050.9438)" gradientUnits="userSpaceOnUse">
						<stop  offset="0" style="stop-color:#42E8E0"/>
						<stop  offset="0.1055" style="stop-color:#37B6BF"/>
						<stop  offset="0.2197" style="stop-color:#2C87A1"/>
						<stop  offset="0.338" style="stop-color:#235F87"/>
						<stop  offset="0.4587" style="stop-color:#1C3F72"/>
						<stop  offset="0.5824" style="stop-color:#162561"/>
						<stop  offset="0.7105" style="stop-color:#121355"/>
						<stop  offset="0.8458" style="stop-color:#10084E"/>
						<stop  offset="1" style="stop-color:#0F054C"/>
					</radialGradient>
					<path class="st43" d="M346.5,186.5c2.5-0.2,5.8,1.3,7.2,3.4c1.5,2.1,0.6,3.9-1.9,4.2c-2.5,0.2-5.8-1.3-7.2-3.4
						C343.1,188.6,344,186.7,346.5,186.5z"/>
					<path class="st7" d="M343.9,188.8c0.4-0.4,1.1-0.6,1.9-0.7c2.5-0.2,5.8,1.3,7.2,3.4c0.4,0.6,0.7,1.3,0.7,1.8
						c0.9-0.8,1-2.1,0-3.5c-1.5-2.1-4.7-3.6-7.2-3.4C344.8,186.6,343.8,187.6,343.9,188.8z"/>
				</g>
			</g>
			<g>
				<path class="st44" d="M355,184c-0.4,0-0.7,0.3-0.7,0.7c0,0.4,0.3,0.7,0.7,0.7c0.4,0,0.7-0.3,0.7-0.7
					C355.7,184.4,355.4,184,355,184z"/>
				<path class="st7" d="M348.2,179c-1,0-1.8,0.8-1.9,1.8c0,1,0.8,1.8,1.8,1.9s1.8-0.8,1.9-1.8C350,179.9,349.2,179,348.2,179z"/>
				<path class="st44" d="M358.6,174.9c-0.6,0-1,0.4-1,1c0,0.6,0.4,1,1,1c0.6,0,1-0.4,1-1S359.2,174.9,358.6,174.9z"/>
				<path class="st7" d="M354.6,175.7c-0.4,0-0.7,0.3-0.7,0.7c0,0.4,0.3,0.7,0.7,0.7s0.7-0.3,0.7-0.7
					C355.3,176.1,354.9,175.7,354.6,175.7z"/>
				<path class="st7" d="M355.3,174.2c-0.3,0-0.5,0.2-0.5,0.5s0.2,0.5,0.5,0.5s0.5-0.2,0.5-0.5S355.6,174.2,355.3,174.2z"/>
				<path class="st44" d="M349.5,187.6c-0.6,0-1,0.4-1,1c0,0.6,0.4,1,1,1c0.6,0,1-0.4,1-1C350.5,188,350,187.6,349.5,187.6z"/>
				<path class="st7" d="M352.5,187.2c-0.8,0-1.5,0.6-1.5,1.5c0,0.8,0.6,1.5,1.5,1.5c0.8,0,1.5-0.6,1.5-1.5
					C354,187.9,353.4,187.2,352.5,187.2z"/>
			</g>
			<g>
				<g>
					<g>
						<g>
							<g>
								<g>
									
										<radialGradient id="SVGID_29_" cx="3.5058" cy="-228.2222" r="79.2442" gradientTransform="matrix(0.981 0.1942 -0.1942 0.981 386.6159 346.7961)" gradientUnits="userSpaceOnUse">
										<stop  offset="0" style="stop-color:#C0BFF6"/>
										<stop  offset="1" style="stop-color:#393091"/>
									</radialGradient>
									<circle class="st45" cx="368.7" cy="167.5" r="13.7"/>
								</g>
							</g>
							<g>
								<g>
									
										<linearGradient id="SVGID_30_" gradientUnits="userSpaceOnUse" x1="-334.4824" y1="503.0801" x2="-307.0242" y2="503.0801" gradientTransform="matrix(0.5372 -0.8434 0.8434 0.5372 116.7238 -373.3263)">
										<stop  offset="0" style="stop-color:#706EC4"/>
										<stop  offset="2.222079e-02" style="stop-color:#6D6BC2"/>
										<stop  offset="0.2509" style="stop-color:#5651AC"/>
										<stop  offset="0.4865" style="stop-color:#463F9D"/>
										<stop  offset="0.7314" style="stop-color:#3C3494"/>
										<stop  offset="1" style="stop-color:#393091"/>
									</linearGradient>
									<circle class="st46" cx="368.7" cy="167.5" r="13.7"/>
								</g>
							</g>
							<g>
								<g>
									
										<radialGradient id="SVGID_31_" cx="1034.4484" cy="289.6999" r="78.2872" gradientTransform="matrix(0.7781 0 0 1.0592 -382.2604 -121.7001)" gradientUnits="userSpaceOnUse">
										<stop  offset="0" style="stop-color:#C0BFF6"/>
										<stop  offset="1" style="stop-color:#393091"/>
									</radialGradient>
									<path class="st47" d="M437.2,192.4c0,26.6-15.9,48.3-35.4,48.3c-19.6,0-35.4-21.6-35.4-48.3c0-26.6,15.9-34.6,35.4-34.6
										C421.3,157.7,437.2,165.7,437.2,192.4z"/>
								</g>
							</g>
							<g>
								<g>
									
										<linearGradient id="SVGID_32_" gradientUnits="userSpaceOnUse" x1="1007.5703" y1="342.0822" x2="1007.5703" y2="263.8275" gradientTransform="matrix(0.7781 0 0 1.0592 -382.2604 -121.7001)">
										<stop  offset="0" style="stop-color:#2FD3C7"/>
										<stop  offset="8.808988e-02" style="stop-color:#31B6BD"/>
										<stop  offset="0.2288" style="stop-color:#338DB0"/>
										<stop  offset="0.3734" style="stop-color:#356BA5"/>
										<stop  offset="0.5206" style="stop-color:#37519C"/>
										<stop  offset="0.6715" style="stop-color:#383F96"/>
										<stop  offset="0.8281" style="stop-color:#393492"/>
										<stop  offset="1" style="stop-color:#393091"/>
									</linearGradient>
									<path class="st48" d="M437.2,192.4c0,26.6-15.9,48.3-35.4,48.3c-19.6,0-35.4-21.6-35.4-48.3c0-26.6,15.9-34.6,35.4-34.6
										C421.3,157.7,437.2,165.7,437.2,192.4z"/>
								</g>
							</g>
							<ellipse class="st42" cx="401.7" cy="172.1" rx="24.2" ry="14"/>
							<radialGradient id="SVGID_33_" cx="400.7906" cy="185.4936" r="47.1498" gradientUnits="userSpaceOnUse">
								<stop  offset="0" style="stop-color:#42E8E0"/>
								<stop  offset="0.1055" style="stop-color:#37B6BF"/>
								<stop  offset="0.2197" style="stop-color:#2C87A1"/>
								<stop  offset="0.338" style="stop-color:#235F87"/>
								<stop  offset="0.4587" style="stop-color:#1C3F72"/>
								<stop  offset="0.5824" style="stop-color:#162561"/>
								<stop  offset="0.7105" style="stop-color:#121355"/>
								<stop  offset="0.8458" style="stop-color:#10084E"/>
								<stop  offset="1" style="stop-color:#0F054C"/>
							</radialGradient>
							<ellipse class="st49" cx="401.7" cy="172.1" rx="24.2" ry="14"/>
							<path class="st7" d="M384.6,165.9c9.4-5.5,24.8-5.5,34.2,0c3.9,2.3,6.2,5.1,6.9,8c1-4.2-1.3-8.5-6.9-11.7
								c-9.4-5.5-24.8-5.5-34.2,0c-5.5,3.2-7.8,7.6-6.9,11.7C378.4,171,380.7,168.2,384.6,165.9z"/>
							<ellipse transform="matrix(0.5 -0.866 0.866 0.5 81.0482 393.1056)" class="st50" cx="381" cy="126.4" rx="14.4" ry="8.3"/>
							<g>
								<g>
									<radialGradient id="SVGID_34_" cx="425.6968" cy="133.3816" r="61.102" gradientUnits="userSpaceOnUse">
										<stop  offset="0" style="stop-color:#C0BFF6"/>
										<stop  offset="1" style="stop-color:#393091"/>
									</radialGradient>
									<circle class="st51" cx="403.1" cy="138.7" r="36.2"/>
								</g>
							</g>
							<g>
								<g>
									<linearGradient id="SVGID_35_" gradientUnits="userSpaceOnUse" x1="398.104" y1="174.5409" x2="408.1678" y2="102.9337">
										<stop  offset="0" style="stop-color:#2FD3C7"/>
										<stop  offset="8.808988e-02" style="stop-color:#31B6BD"/>
										<stop  offset="0.2288" style="stop-color:#338DB0"/>
										<stop  offset="0.3734" style="stop-color:#356BA5"/>
										<stop  offset="0.5206" style="stop-color:#37519C"/>
										<stop  offset="0.6715" style="stop-color:#383F96"/>
										<stop  offset="0.8281" style="stop-color:#393492"/>
										<stop  offset="1" style="stop-color:#393091"/>
									</linearGradient>
									<circle class="st52" cx="403.1" cy="138.7" r="36.2"/>
								</g>
							</g>
							<g>
								<path class="st42" d="M391.9,155.9c-0.9,7.1-6.3,9.3-12,5c-5.7-4.4-9.6-13.6-8.6-20.8c0.9-7.1,6.3-9.3,12-5
									C388.9,139.5,392.8,148.8,391.9,155.9z"/>
								<radialGradient id="SVGID_36_" cx="391.8788" cy="142.0708" r="30.0118" gradientUnits="userSpaceOnUse">
									<stop  offset="0" style="stop-color:#42E8E0"/>
									<stop  offset="5.910996e-02" style="stop-color:#3CCBCD"/>
									<stop  offset="0.1783" style="stop-color:#3098AC"/>
									<stop  offset="0.2996" style="stop-color:#266B8F"/>
									<stop  offset="0.4207" style="stop-color:#1E4777"/>
									<stop  offset="0.5414" style="stop-color:#172A65"/>
									<stop  offset="0.6619" style="stop-color:#131657"/>
									<stop  offset="0.7821" style="stop-color:#100A50"/>
									<stop  offset="0.9017" style="stop-color:#0F064D"/>
									<stop  offset="1" style="stop-color:#0F054C"/>
								</radialGradient>
								<path class="st53" d="M391.9,155.9c-0.9,7.1-6.3,9.3-12,5c-5.7-4.4-9.6-13.6-8.6-20.8c0.9-7.1,6.3-9.3,12-5
									C388.9,139.5,392.8,148.8,391.9,155.9z"/>
								<path class="st7" d="M387.2,149.7c-0.3,2.6-2.3,3.4-4.4,1.8c-2.1-1.6-3.5-5-3.1-7.5c0.3-2.6,2.3-3.4,4.4-1.8
									C386.1,143.7,387.5,147.1,387.2,149.7z"/>
								<path class="st7" d="M382.6,159.8c-5.7-4.4-9.6-13.6-8.6-20.8c0.4-2.9,1.5-5,3.1-6.1c-3,0.3-5.2,2.8-5.8,7.2
									c-0.9,7.1,2.9,16.4,8.6,20.8c3.4,2.6,6.6,2.8,8.9,1.2C386.9,162.2,384.8,161.5,382.6,159.8z"/>
								<path class="st7" d="M380.4,160.6c-5.7-4.4-9.6-13.6-8.6-20.8c0.4-3.3,1.8-5.5,3.7-6.6c-2.2,0.9-3.8,3.2-4.2,6.8
									c-0.9,7.1,2.9,16.4,8.6,20.8c3.1,2.3,6,2.8,8.2,1.6C386,163.3,383.2,162.8,380.4,160.6z"/>
							</g>
							<g>
								<g>
									
										<radialGradient id="SVGID_37_" cx="31.0776" cy="-163.3433" r="28.6406" gradientTransform="matrix(0.981 0.1942 -0.1942 0.981 386.6159 346.7961)" gradientUnits="userSpaceOnUse">
										<stop  offset="0" style="stop-color:#C0BFF6"/>
										<stop  offset="1" style="stop-color:#393091"/>
									</radialGradient>
									<circle class="st54" cx="440.7" cy="201.6" r="13.7"/>
								</g>
							</g>
							<g>
								<g>
									
										<linearGradient id="SVGID_38_" gradientUnits="userSpaceOnUse" x1="15.5107" y1="-142.9024" x2="34.1657" y2="-163.0474" gradientTransform="matrix(0.981 0.1942 -0.1942 0.981 386.6159 346.7961)">
										<stop  offset="0" style="stop-color:#2FD3C7"/>
										<stop  offset="8.808988e-02" style="stop-color:#31B6BD"/>
										<stop  offset="0.2288" style="stop-color:#338DB0"/>
										<stop  offset="0.3734" style="stop-color:#356BA5"/>
										<stop  offset="0.5206" style="stop-color:#37519C"/>
										<stop  offset="0.6715" style="stop-color:#383F96"/>
										<stop  offset="0.8281" style="stop-color:#393492"/>
										<stop  offset="1" style="stop-color:#393091"/>
									</linearGradient>
									<circle class="st55" cx="440.7" cy="201.6" r="13.7"/>
								</g>
							</g>
						</g>
						<g>
							<path class="st42" d="M453.9,201.8c0,3.9-2.7,8.6-6.1,10.5c-3.4,1.9-6.1,0.4-6.1-3.5c0-3.9,2.7-8.6,6.1-10.5
								C451.2,196.4,453.9,197.9,453.9,201.8z"/>
							<radialGradient id="SVGID_39_" cx="445.2482" cy="203.1573" r="25.5791" gradientUnits="userSpaceOnUse">
								<stop  offset="0" style="stop-color:#42E8E0"/>
								<stop  offset="0.1055" style="stop-color:#37B6BF"/>
								<stop  offset="0.2197" style="stop-color:#2C87A1"/>
								<stop  offset="0.338" style="stop-color:#235F87"/>
								<stop  offset="0.4587" style="stop-color:#1C3F72"/>
								<stop  offset="0.5824" style="stop-color:#162561"/>
								<stop  offset="0.7105" style="stop-color:#121355"/>
								<stop  offset="0.8458" style="stop-color:#10084E"/>
								<stop  offset="1" style="stop-color:#0F054C"/>
							</radialGradient>
							<path class="st56" d="M453.9,201.8c0,3.9-2.7,8.6-6.1,10.5c-3.4,1.9-6.1,0.4-6.1-3.5c0-3.9,2.7-8.6,6.1-10.5
								C451.2,196.4,453.9,197.9,453.9,201.8z"/>
							<path class="st7" d="M450.7,197.5c0.5,0.7,0.8,1.7,0.8,3c0,3.9-2.7,8.6-6.1,10.5c-1,0.6-2,0.9-2.8,0.8c1,1.5,3,1.8,5.3,0.5
								c3.4-1.9,6.1-6.6,6.1-10.5C453.9,199.1,452.6,197.6,450.7,197.5z"/>
						</g>
					</g>
				</g>
				<polygon class="st42" points="433.6,152 420.6,159.5 420.6,144.4 433.6,136.8 				"/>
				
					<radialGradient id="SVGID_40_" cx="424.6559" cy="-1675.5148" r="24.1103" gradientTransform="matrix(1 0 0 1.2847 0 2274.8779)" gradientUnits="userSpaceOnUse">
					<stop  offset="0" style="stop-color:#2B237C"/>
					<stop  offset="0.31" style="stop-color:#251C72"/>
					<stop  offset="1" style="stop-color:#0F054C"/>
				</radialGradient>
				<polygon class="st57" points="431.7,138 431.7,150.9 420.6,157.3 420.6,159.5 433.6,152 433.6,136.8 				"/>
				<g>
					<polygon class="st7" points="423.1,148.5 421.9,149.2 421.9,147.9 423.1,147.2 					"/>
					<polygon class="st7" points="425.5,145.4 424.4,146 424.4,144.7 425.5,144 					"/>
					<polygon class="st7" points="428,145.7 426.9,146.3 426.9,145 428,144.3 					"/>
					<polygon class="st7" points="428,149.2 426.9,149.9 426.9,148.5 428,147.9 					"/>
					<polygon class="st7" points="426.5,151.9 425.4,152.6 425.4,151.3 426.5,150.6 					"/>
					<polygon class="st7" points="430.6,147.7 429.4,148.4 429.4,147.1 430.6,146.4 					"/>
				</g>
				<g>
					<g>
						<linearGradient id="SVGID_41_" gradientUnits="userSpaceOnUse" x1="443.6169" y1="154.8239" x2="409.3354" y2="165.2486">
							<stop  offset="0" style="stop-color:#BCBEFF"/>
							<stop  offset="0.151" style="stop-color:#A3A7F5"/>
							<stop  offset="0.3866" style="stop-color:#8289E8"/>
							<stop  offset="0.6124" style="stop-color:#6A73DF"/>
							<stop  offset="0.8221" style="stop-color:#5C66D9"/>
							<stop  offset="1" style="stop-color:#5761D7"/>
						</linearGradient>
						<polygon class="st58" points="444.2,148 445.6,145.5 444.2,144.7 431.1,152.2 431.1,167.3 432.5,168.2 434,165.7 444.2,159.8 
													"/>
						<linearGradient id="SVGID_42_" gradientUnits="userSpaceOnUse" x1="437.683" y1="156.9991" x2="390.7074" y2="162.5956">
							<stop  offset="0" style="stop-color:#BCBEFF"/>
							<stop  offset="0.151" style="stop-color:#A3A7F5"/>
							<stop  offset="0.3866" style="stop-color:#8289E8"/>
							<stop  offset="0.6124" style="stop-color:#6A73DF"/>
							<stop  offset="0.8221" style="stop-color:#5C66D9"/>
							<stop  offset="1" style="stop-color:#5761D7"/>
						</linearGradient>
						<polygon class="st59" points="445.6,160.6 432.5,168.2 432.5,153.1 445.6,145.5 						"/>
					</g>
					<linearGradient id="SVGID_43_" gradientUnits="userSpaceOnUse" x1="430.6371" y1="170.8091" x2="455.1134" y2="130.3253">
						<stop  offset="0" style="stop-color:#42E8E0"/>
						<stop  offset="0.1188" style="stop-color:#42E2DE"/>
						<stop  offset="0.2699" style="stop-color:#41D3D7"/>
						<stop  offset="0.4386" style="stop-color:#40B9CC"/>
						<stop  offset="0.6201" style="stop-color:#3E94BC"/>
						<stop  offset="0.8101" style="stop-color:#3C66A8"/>
						<stop  offset="1" style="stop-color:#393091"/>
					</linearGradient>
					<polygon class="st60" points="445.6,160.6 432.5,168.2 432.5,153.1 445.6,145.5 					"/>
				</g>
			</g>
			<g>
				<polygon class="st7" points="430.3,147.5 430,147.3 444.5,131.8 485.7,131.8 500.9,116.6 500.9,54.7 501.2,54.7 501.2,116.7 
					485.8,132.1 444.6,132.1 				"/>
				<polygon class="st7" points="500.9,101.2 493.8,94 493.8,68.6 494.1,68.6 494.1,93.9 501.2,101 				"/>
				<polygon class="st7" points="457,132.1 456.7,131.9 464.8,123.7 482.5,123.7 490.9,115.3 491.2,115.5 482.6,124.1 465,124.1 
									"/>
				<path class="st7" d="M491,116.6c-0.6,0-1.2-0.5-1.2-1.2c0-0.6,0.5-1.2,1.2-1.2c0.6,0,1.2,0.5,1.2,1.2
					C492.2,116.1,491.7,116.6,491,116.6z"/>
				<path class="st7" d="M479.2,108.7c-0.6,0-1.2-0.5-1.2-1.2s0.5-1.2,1.2-1.2c0.6,0,1.2,0.5,1.2,1.2S479.8,108.7,479.2,108.7z"/>
				<path class="st7" d="M488.6,97.1c-0.6,0-1.2-0.5-1.2-1.2c0-0.6,0.5-1.2,1.2-1.2s1.2,0.5,1.2,1.2
					C489.7,96.6,489.2,97.1,488.6,97.1z"/>
				<path class="st7" d="M483.9,67.7c-0.6,0-1.2-0.5-1.2-1.2c0-0.6,0.5-1.2,1.2-1.2s1.2,0.5,1.2,1.2
					C485.1,67.2,484.6,67.7,483.9,67.7z"/>
				<path class="st7" d="M494,69.7c-0.6,0-1.2-0.5-1.2-1.2c0-0.6,0.5-1.2,1.2-1.2s1.2,0.5,1.2,1.2C495.1,69.2,494.6,69.7,494,69.7z"
					/>
				<path class="st7" d="M501,55.8c-0.6,0-1.2-0.5-1.2-1.2c0-0.6,0.5-1.2,1.2-1.2s1.2,0.5,1.2,1.2C502.2,55.3,501.7,55.8,501,55.8z"
					/>
				<path class="st7" d="M445,105c-0.6,0-1.2-0.5-1.2-1.2c0-0.6,0.5-1.2,1.2-1.2c0.6,0,1.2,0.5,1.2,1.2
					C446.2,104.4,445.6,105,445,105z"/>
				<polygon class="st7" points="422.6,148.2 422.3,148.2 422.3,141.3 422.3,141.3 438.7,124.6 438.7,101 452.3,87.4 479,87.4 
					483.8,82.7 483.8,66.6 484.1,66.6 484.1,82.8 479.2,87.7 452.5,87.7 439.1,101.1 439.1,124.8 439,124.8 422.6,141.5 				"/>
				<polygon class="st7" points="439,119.2 438.8,119 444.8,113 444.8,103.8 445.2,103.8 445.2,113.1 				"/>
				<polygon class="st7" points="425.1,145.2 424.8,145 462.5,107.3 478.9,107.3 478.9,107.7 462.6,107.7 				"/>
				<polygon class="st7" points="455.7,114.5 455.4,114.5 455.4,102.5 462.1,95.8 488.6,95.8 488.6,96.1 462.3,96.1 455.7,102.7 
									"/>
			</g>
			<g>
				<g>
					<g>
						
							<radialGradient id="SVGID_44_" cx="-233.4121" cy="-116.6874" r="25.8945" gradientTransform="matrix(0.9575 0.2883 -0.2883 0.9575 636.9385 411.9287)" gradientUnits="userSpaceOnUse">
							<stop  offset="0" style="stop-color:#C0BFF6"/>
							<stop  offset="1" style="stop-color:#393091"/>
						</radialGradient>
						<path class="st61" d="M450.1,240.1c-1.5,4.8-9.2,14.2-14.1,12.7s-4.8-13.2-3.4-18c1.5-4.8,6.5-7.6,11.4-6.1
							C448.8,230.2,451.6,235.3,450.1,240.1z"/>
					</g>
				</g>
				<g>
					<g>
						
							<linearGradient id="SVGID_45_" gradientUnits="userSpaceOnUse" x1="-245.6142" y1="-99.8552" x2="-230.3056" y2="-116.3865" gradientTransform="matrix(0.9575 0.2883 -0.2883 0.9575 636.9385 411.9287)">
							<stop  offset="0" style="stop-color:#2FD3C7"/>
							<stop  offset="8.808988e-02" style="stop-color:#31B6BD"/>
							<stop  offset="0.2288" style="stop-color:#338DB0"/>
							<stop  offset="0.3734" style="stop-color:#356BA5"/>
							<stop  offset="0.5206" style="stop-color:#37519C"/>
							<stop  offset="0.6715" style="stop-color:#383F96"/>
							<stop  offset="0.8281" style="stop-color:#393492"/>
							<stop  offset="1" style="stop-color:#393091"/>
						</linearGradient>
						<path class="st62" d="M450.1,240.1c-1.5,4.8-9.2,14.2-14.1,12.7s-4.8-13.2-3.4-18c1.5-4.8,6.5-7.6,11.4-6.1
							C448.8,230.2,451.6,235.3,450.1,240.1z"/>
					</g>
				</g>
				<g>
					<path class="st42" d="M440.8,228.8c2.5-0.2,5.8,1.3,7.2,3.4c1.5,2.1,0.6,3.9-1.9,4.2c-2.5,0.2-5.8-1.3-7.2-3.4
						C437.4,230.9,438.3,229,440.8,228.8z"/>
					
						<radialGradient id="SVGID_46_" cx="2489.4041" cy="3787.9497" r="16.8045" gradientTransform="matrix(-8.900000e-02 -0.996 0.996 -8.900000e-02 -3109.0232 3050.9438)" gradientUnits="userSpaceOnUse">
						<stop  offset="0" style="stop-color:#42E8E0"/>
						<stop  offset="0.1055" style="stop-color:#37B6BF"/>
						<stop  offset="0.2197" style="stop-color:#2C87A1"/>
						<stop  offset="0.338" style="stop-color:#235F87"/>
						<stop  offset="0.4587" style="stop-color:#1C3F72"/>
						<stop  offset="0.5824" style="stop-color:#162561"/>
						<stop  offset="0.7105" style="stop-color:#121355"/>
						<stop  offset="0.8458" style="stop-color:#10084E"/>
						<stop  offset="1" style="stop-color:#0F054C"/>
					</radialGradient>
					<path class="st63" d="M440.8,228.8c2.5-0.2,5.8,1.3,7.2,3.4c1.5,2.1,0.6,3.9-1.9,4.2c-2.5,0.2-5.8-1.3-7.2-3.4
						C437.4,230.9,438.3,229,440.8,228.8z"/>
					<path class="st7" d="M438.2,231.2c0.4-0.4,1.1-0.6,1.9-0.7c2.5-0.2,5.8,1.3,7.2,3.4c0.4,0.6,0.7,1.3,0.7,1.8
						c0.9-0.8,1-2.1,0-3.5c-1.5-2.1-4.7-3.6-7.2-3.4C439.1,229,438.1,229.9,438.2,231.2z"/>
				</g>
			</g>
			<path class="st44" d="M448,223c0.3-0.3,0.3-0.7,0-1c-0.3-0.3-0.7-0.3-1,0s-0.3,0.7,0,1C447.2,223.3,447.7,223.3,448,223z"/>
			<path class="st7" d="M456.3,221.8c0.7-0.7,0.8-1.8,0.1-2.6c-0.7-0.7-1.8-0.8-2.6-0.1c-0.7,0.7-0.8,1.8-0.1,2.6
				C454.5,222.5,455.6,222.5,456.3,221.8z"/>
			<path class="st44" d="M451.8,232c0.4-0.4,0.4-1,0-1.4c-0.4-0.4-1-0.4-1.4,0c-0.4,0.4-0.4,1,0,1.4
				C450.7,232.4,451.4,232.4,451.8,232z"/>
			<path class="st7" d="M454.1,228.6c0.3-0.3,0.3-0.7,0-1c-0.3-0.3-0.7-0.3-1,0c-0.3,0.3-0.3,0.7,0,1
				C453.4,228.8,453.8,228.9,454.1,228.6z"/>
			<path class="st7" d="M454.7,230.2c0.2-0.2,0.2-0.5,0-0.7c-0.2-0.2-0.5-0.2-0.7,0c-0.2,0.2-0.2,0.5,0,0.7
				C454.2,230.4,454.5,230.4,454.7,230.2z"/>
			<path class="st44" d="M449.5,216.6c0.4-0.4,0.4-1,0-1.4c-0.4-0.4-1-0.4-1.4,0c-0.4,0.4-0.4,1,0,1.4
				C448.4,217,449.1,217,449.5,216.6z"/>
			<path class="st7" d="M447.5,219c0.6-0.6,0.6-1.5,0.1-2.1c-0.6-0.6-1.5-0.6-2.1-0.1c-0.6,0.6-0.6,1.5-0.1,2.1
				C446,219.5,446.9,219.6,447.5,219z"/>
		</g>
	</g>
	<g>
		<linearGradient id="SVGID_47_" gradientUnits="userSpaceOnUse" x1="352.4465" y1="155.8032" x2="423.1932" y2="155.8032">
			<stop  offset="0" style="stop-color:#BCBEFF"/>
			<stop  offset="0.1659" style="stop-color:#B6B8FC"/>
			<stop  offset="0.3956" style="stop-color:#A4A8F5"/>
			<stop  offset="0.6625" style="stop-color:#868DEA"/>
			<stop  offset="0.9554" style="stop-color:#5E67DA"/>
			<stop  offset="1" style="stop-color:#5761D7"/>
		</linearGradient>
		<path class="st64" d="M417.7,125.2l-74.7-42.8c-1.2-0.7-2.3-0.7-3.2-0.2l0,0l-4.6,2.7l3,2.2v2.4l-1.7,0.7l0.1,91.1l5.1,4.9
			l17.3,9.9l53,29.5c0,0,2,0,2.3,0c0.1,0,0.2-0.3,0.3-0.6l2.3,1.3l-0.7,3.5l4.7-2.7l0,0c1-0.6,1.7-1.9,1.7-3.9v-88.8
			C422.5,130.8,420.4,126.7,417.7,125.2z M415.7,220.6l-71.9-41.2c-0.6-0.3-1.1-1.3-1.1-2.1V89.6l15.3,9.8l55.4,32.6l1.6,2.5
			l0.9,39.7L415.7,220.6z"/>
		<path class="st65" d="M421,128.8l-7.2,4.1l1,1.6l0.9,39.7l-0.1,46.3l-1.3-0.8c0,1.4,1.8,8.5,1.8,10l3.8-2.2l0.9-0.5l0,0
			c1-0.6,1.7-1.9,1.7-3.9v-88.8C422.5,132.5,421.9,130.5,421,128.8z"/>
		<linearGradient id="SVGID_48_" gradientUnits="userSpaceOnUse" x1="333.448" y1="157.3902" x2="417.6931" y2="157.3902">
			<stop  offset="0" style="stop-color:#BCBEFF"/>
			<stop  offset="0.1659" style="stop-color:#B6B8FC"/>
			<stop  offset="0.3956" style="stop-color:#A4A8F5"/>
			<stop  offset="0.6625" style="stop-color:#868DEA"/>
			<stop  offset="0.9554" style="stop-color:#5E67DA"/>
			<stop  offset="1" style="stop-color:#5761D7"/>
		</linearGradient>
		<path class="st66" d="M412.9,128l-74.7-42.8c-2.6-1.5-4.8,0.1-4.8,3.6v88.8c0,3.5,2.1,7.6,4.8,9.2l74.7,42.8
			c2.6,1.5,4.8-0.1,4.8-3.6v-88.8C417.7,133.6,415.5,129.5,412.9,128z M413.3,223.3c0,0.8-0.5,1.2-1.1,0.8l-73.3-42
			c-0.6-0.3-1.1-1.3-1.1-2.1V91.5c0-0.8,0.5-1.2,1.1-0.8l73.3,42c0.6,0.3,1.1,1.3,1.1,2.1V223.3z"/>
		<linearGradient id="SVGID_49_" gradientUnits="userSpaceOnUse" x1="321.8124" y1="157.3902" x2="473.804" y2="157.3902">
			<stop  offset="0" style="stop-color:#706EC4"/>
			<stop  offset="2.222079e-02" style="stop-color:#6D6BC2"/>
			<stop  offset="0.2509" style="stop-color:#5651AC"/>
			<stop  offset="0.4865" style="stop-color:#463F9D"/>
			<stop  offset="0.7314" style="stop-color:#3C3494"/>
			<stop  offset="1" style="stop-color:#393091"/>
		</linearGradient>
		<path class="st67" d="M412.9,128l-74.7-42.8c-2.6-1.5-4.8,0.1-4.8,3.6v88.8c0,3.5,2.1,7.6,4.8,9.2l74.7,42.8
			c2.6,1.5,4.8-0.1,4.8-3.6v-88.8C417.7,133.6,415.5,129.5,412.9,128z M413.3,223.3c0,0.8-0.5,1.2-1.1,0.8l-73.3-42
			c-0.6-0.3-1.1-1.3-1.1-2.1V91.5c0-0.8,0.5-1.2,1.1-0.8l73.3,42c0.6,0.3,1.1,1.3,1.1,2.1V223.3z"/>
		<path class="st42" d="M343.7,179.3c-0.6-0.3-1.1-1.3-1.1-2.1V92.8l-3.7-2.2c-0.6-0.3-1.1,0-1.1,0.8V180c0,0.8,0.5,1.7,1.1,2.1
			l73.3,42c0.6,0.3,1.1,0,1.1-0.8v-4.1L343.7,179.3z"/>
		<path class="st8" d="M413.3,223.3c0,0.8-0.5,1.2-1.1,0.8l-73.3-42c-0.6-0.3-1.1-1.3-1.1-2.1V91.5c0-0.8,0.5-1.2,1.1-0.8l73.3,42
			c0.6,0.3,1.1,1.3,1.1,2.1V223.3z"/>
	</g>
	<g class="st68">
		<polygon class="st7" points="360.4,130.2 353.3,126.1 353.3,124.3 360.4,128.4 		"/>
		<polygon class="st7" points="366.5,133.7 363,131.6 363,129.8 366.5,131.9 		"/>
		<polygon class="st7" points="362.5,135.6 359.5,133.8 359.5,132 362.5,133.8 		"/>
		<polygon class="st7" points="367.6,138.5 364.1,136.5 364.1,134.7 367.6,136.7 		"/>
		<polygon class="st7" points="373.5,146.1 359.5,138 359.5,136.3 373.5,144.3 		"/>
		<polygon class="st7" points="362.5,144 359.5,142.3 359.5,140.5 362.5,142.2 		"/>
		<polygon class="st7" points="367.6,147 364.1,144.9 364.1,143.1 367.6,145.2 		"/>
		<polygon class="st7" points="367.2,150.9 359.5,146.5 359.5,144.7 367.2,149.1 		"/>
		<polygon class="st7" points="372.4,153.9 368.8,151.8 368.8,150 372.4,152.1 		"/>
		<polygon class="st7" points="377.5,156.9 374,154.8 374,153 377.5,155.1 		"/>
		<polygon class="st7" points="385.9,161.7 379.2,157.8 379.2,156 385.9,159.9 		"/>
		<polygon class="st7" points="381.9,167.8 378.3,165.7 378.3,163.9 381.9,166 		"/>
		<polygon class="st7" points="390.2,172.6 383.5,168.7 383.5,166.9 390.2,170.8 		"/>
		<polygon class="st7" points="363.1,156.9 359.5,154.9 359.5,153.1 363.1,155.2 		"/>
		<polygon class="st7" points="368.2,159.9 364.7,157.9 364.7,156.1 368.2,158.1 		"/>
		<polygon class="st7" points="376.6,164.8 369.9,160.9 369.9,159.1 376.6,163 		"/>
		<polygon class="st7" points="386.9,166.5 383.4,164.5 383.4,162.7 386.9,164.7 		"/>
		<polygon class="st7" points="392.1,169.5 388.5,167.4 388.5,165.7 392.1,167.7 		"/>
		<polygon class="st7" points="400.5,174.3 393.7,170.4 393.7,168.6 400.5,172.5 		"/>
		<polygon class="st7" points="363.1,165.4 359.5,163.3 359.5,161.5 363.1,163.6 		"/>
		<polygon class="st7" points="371.4,170.2 364.7,166.3 364.7,164.5 371.4,168.4 		"/>
		<polygon class="st7" points="384.2,152.3 380.6,150.2 380.6,148.4 384.2,150.5 		"/>
		<polygon class="st7" points="378.8,149.2 375.2,147.1 375.2,145.3 378.8,147.4 		"/>
		<polygon class="st7" points="392.5,157.1 385.8,153.2 385.8,151.4 392.5,155.3 		"/>
		<polygon class="st7" points="362.7,152.5 359.5,150.7 359.5,148.9 362.7,150.7 		"/>
		<polygon class="st7" points="372.3,158 364.4,153.5 364.4,151.7 372.3,156.2 		"/>
		<polygon class="st7" points="381.8,163.6 374,159 374,157.2 381.8,161.8 		"/>
		<polygon class="st7" points="397.5,160 394.3,158.1 394.3,156.3 397.5,158.2 		"/>
		<polygon class="st7" points="367.4,163.7 359.6,159.1 359.6,157.3 367.4,161.9 		"/>
		<polygon class="st7" points="371.5,166 369.1,164.6 369.1,162.8 371.5,164.2 		"/>
		<polygon class="st7" points="375.6,168.4 373.2,167 373.2,165.2 375.6,166.6 		"/>
		<polygon class="st7" points="383.3,172.8 377.4,169.4 377.4,167.6 383.3,171 		"/>
		<polygon class="st7" points="384.9,173.8 379,170.3 379,168.5 384.9,172 		"/>
		<polygon class="st7" points="389.9,164 387.5,162.6 387.5,160.8 389.9,162.2 		"/>
		<polygon class="st7" points="397.5,168.4 391.6,165 391.6,163.2 397.5,166.6 		"/>
		<polygon class="st7" points="355.8,165.4 353.4,164 353.4,162.2 355.8,163.6 		"/>
		<polygon class="st7" points="363.4,169.8 357.5,166.4 357.5,164.6 363.4,168 		"/>
		<polygon class="st7" points="371.2,174.3 365.3,170.9 365.3,169.1 371.2,172.5 		"/>
	</g>
</g>
</svg>
